<svg xmlns="http://www.w3.org/2000/svg" xmlns:xlink="http://www.w3.org/1999/xlink" contentStyleType="text/css" data-diagram-type="SEQUENCE" height="914.375px" preserveAspectRatio="none" style="width:1519px;height:914px;background:#FFFFFF;" version="1.1" viewBox="0 0 1519 914" width="1519.5833px" zoomAndPan="magnify"><title>Webhook: &#1087;&#1086;&#1076;&#1090;&#1074;&#1077;&#1088;&#1078;&#1076;&#1072;&#1077;&#1084; &#1090;&#1086;&#1083;&#1100;&#1082;&#1086; &#1085;&#1072;&#1076;&#1105;&#1078;&#1085;&#1086; &#1089;&#1086;&#1093;&#1088;&#1072;&#1085;&#1105;&#1085;&#1085;&#1086;&#1077; &#1089;&#1086;&#1073;&#1099;&#1090;&#1080;&#1077;</title><defs/><g><text fill="#0F172A" font-family="DejaVu Sans" font-size="29.1667" font-weight="bold" lengthAdjust="spacing" textLength="1098.0652" x="209.53" y="48.9482">Webhook: &#1087;&#1086;&#1076;&#1090;&#1074;&#1077;&#1088;&#1078;&#1076;&#1072;&#1077;&#1084; &#1090;&#1086;&#1083;&#1100;&#1082;&#1086; &#1085;&#1072;&#1076;&#1105;&#1078;&#1085;&#1086; &#1089;&#1086;&#1093;&#1088;&#1072;&#1085;&#1105;&#1085;&#1085;&#1086;&#1077; &#1089;&#1086;&#1073;&#1099;&#1090;&#1080;&#1077;</text><g><title>.........</title><rect fill="#000000" fill-opacity="0.00000" height="637.9525" width="11.6667" x="70.7933" y="162.7181"/><line style="stroke:#181818;stroke-width:0.7292;stroke-dasharray:7.2917,7.2917;" x1="75.8333" x2="75.8333" y1="162.7181" y2="800.6706"/></g><g><title>Callback API</title><rect fill="#000000" fill-opacity="0.00000" height="637.9525" width="11.6667" x="504.0778" y="162.7181"/><line style="stroke:#181818;stroke-width:0.7292;stroke-dasharray:7.2917,7.2917;" x1="509.909" x2="509.909" y1="162.7181" y2="800.6706"/></g><g><title>.. . inbox</title><rect fill="#000000" fill-opacity="0.00000" height="637.9525" width="11.6667" x="975.1849" y="162.7181"/><line style="stroke:#181818;stroke-width:0.7292;stroke-dasharray:7.2917,7.2917;" x1="980.5376" x2="980.5376" y1="162.7181" y2="800.6706"/></g><g><title>Worker</title><rect fill="#000000" fill-opacity="0.00000" height="637.9525" width="11.6667" x="1458.3248" y="162.7181"/><line style="stroke:#181818;stroke-width:0.7292;stroke-dasharray:7.2917,7.2917;" x1="1463.691" x2="1463.691" y1="162.7181" y2="800.6706"/></g><g class="participant participant-head" data-participant="P"><rect fill="#E2E2F0" height="44.1829" rx="5.8333" ry="5.8333" style="stroke:#181818;stroke-width:0.7292;" width="138.6698" x="7.2917" y="117.0768"/><text fill="#000000" font-family="DejaVu Sans" font-size="20.4167" lengthAdjust="spacing" textLength="118.2532" x="17.5" y="146.2364">&#1055;&#1088;&#1086;&#1074;&#1072;&#1081;&#1076;&#1077;&#1088;</text></g><g class="participant participant-tail" data-participant="P"><rect fill="#E2E2F0" height="44.1829" rx="5.8333" ry="5.8333" style="stroke:#181818;stroke-width:0.7292;" width="138.6698" x="7.2917" y="799.2122"/><text fill="#000000" font-family="DejaVu Sans" font-size="20.4167" lengthAdjust="spacing" textLength="118.2532" x="17.5" y="828.3718">&#1055;&#1088;&#1086;&#1074;&#1072;&#1081;&#1076;&#1077;&#1088;</text></g><g class="participant participant-head" data-participant="A"><rect fill="#E2E2F0" height="44.1829" rx="5.8333" ry="5.8333" style="stroke:#181818;stroke-width:0.7292;" width="145.8376" x="436.9923" y="117.0768"/><text fill="#000000" font-family="DejaVu Sans" font-size="20.4167" lengthAdjust="spacing" textLength="125.4209" x="447.2006" y="146.2364">Callback API</text></g><g class="participant participant-tail" data-participant="A"><rect fill="#E2E2F0" height="44.1829" rx="5.8333" ry="5.8333" style="stroke:#181818;stroke-width:0.7292;" width="145.8376" x="436.9923" y="799.2122"/><text fill="#000000" font-family="DejaVu Sans" font-size="20.4167" lengthAdjust="spacing" textLength="125.4209" x="447.2006" y="828.3718">Callback API</text></g><g class="participant participant-head" data-participant="D"><text fill="#000000" font-family="DejaVu Sans" font-size="20.4167" lengthAdjust="spacing" textLength="105.9613" x="923.6626" y="157.903">&#1041;&#1044; / inbox</text><path d="M954.7683,86.4518 C954.7683,71.8685 981.0183,71.8685 981.0183,71.8685 C981.0183,71.8685 1007.2683,71.8685 1007.2683,86.4518 L1007.2683,124.3685 C1007.2683,138.9518 981.0183,138.9518 981.0183,138.9518 C981.0183,138.9518 954.7683,138.9518 954.7683,124.3685 L954.7683,86.4518" fill="#E2E2F0" style="stroke:#181818;stroke-width:0.7292;"/><path d="M954.7683,86.4518 C954.7683,101.0352 981.0183,101.0352 981.0183,101.0352 C981.0183,101.0352 1007.2683,101.0352 1007.2683,86.4518" fill="none" style="stroke:#181818;stroke-width:0.7292;"/></g><g class="participant participant-tail" data-participant="D"><text fill="#000000" font-family="DejaVu Sans" font-size="20.4167" lengthAdjust="spacing" textLength="105.9613" x="923.6626" y="818.1635">&#1041;&#1044; / inbox</text><path d="M954.7683,837.5618 C954.7683,822.9785 981.0183,822.9785 981.0183,822.9785 C981.0183,822.9785 1007.2683,822.9785 1007.2683,837.5618 L1007.2683,875.4785 C1007.2683,890.0618 981.0183,890.0618 981.0183,890.0618 C981.0183,890.0618 954.7683,890.0618 954.7683,875.4785 L954.7683,837.5618" fill="#E2E2F0" style="stroke:#181818;stroke-width:0.7292;"/><path d="M954.7683,837.5618 C954.7683,852.1452 981.0183,852.1452 981.0183,852.1452 C981.0183,852.1452 1007.2683,852.1452 1007.2683,837.5618" fill="none" style="stroke:#181818;stroke-width:0.7292;"/></g><g class="participant participant-head" data-participant="W"><rect fill="#E2E2F0" height="44.1829" rx="5.8333" ry="5.8333" style="stroke:#181818;stroke-width:0.7292;" width="94.2676" x="1417.0243" y="117.0768"/><text fill="#000000" font-family="DejaVu Sans" font-size="20.4167" lengthAdjust="spacing" textLength="73.8509" x="1427.2327" y="146.2364">Worker</text></g><g class="participant participant-tail" data-participant="W"><rect fill="#E2E2F0" height="44.1829" rx="5.8333" ry="5.8333" style="stroke:#181818;stroke-width:0.7292;" width="94.2676" x="1417.0243" y="799.2122"/><text fill="#000000" font-family="DejaVu Sans" font-size="20.4167" lengthAdjust="spacing" textLength="73.8509" x="1427.2327" y="828.3718">Worker</text></g><g class="message" data-participant-1="P" data-participant-2="A"><polygon fill="#334155" points="492.4111,203.9844,506.9944,209.8177,492.4111,215.651,498.2444,209.8177" style="stroke:#334155;stroke-width:1.4583;"/><line style="stroke:#334155;stroke-width:1.4583;" x1="76.6266" x2="501.1611" y1="209.8177" y2="209.8177"/><text fill="#000000" font-family="DejaVu Sans" font-size="20.4167" lengthAdjust="spacing" textLength="398.2845" x="86.8349" y="202.086">event_id, payment_id, status, &#1087;&#1086;&#1076;&#1087;&#1080;&#1089;&#1100;</text></g><g class="message" data-participant-1="A" data-participant-2="A"><line style="stroke:#334155;stroke-width:1.4583;" x1="509.9111" x2="571.1611" y1="277.7669" y2="277.7669"/><line style="stroke:#334155;stroke-width:1.4583;" x1="571.1611" x2="571.1611" y1="277.7669" y2="296.7253"/><line style="stroke:#334155;stroke-width:1.4583;" x1="511.3694" x2="571.1611" y1="296.7253" y2="296.7253"/><polygon fill="#334155" points="525.9528,290.8919,511.3694,296.7253,525.9528,302.5586,520.1194,296.7253" style="stroke:#334155;stroke-width:1.4583;"/><text fill="#000000" font-family="DejaVu Sans" font-size="20.4167" lengthAdjust="spacing" textLength="355.3676" x="520.1194" y="246.2689">&#1087;&#1088;&#1086;&#1074;&#1077;&#1088;&#1080;&#1090;&#1100; &#1087;&#1086;&#1076;&#1087;&#1080;&#1089;&#1100; &#1089;&#1099;&#1088;&#1086;&#1075;&#1086; &#1090;&#1077;&#1083;&#1072;,</text><text fill="#000000" font-family="DejaVu Sans" font-size="20.4167" lengthAdjust="spacing" textLength="351.4797" x="520.1194" y="270.0352">&#1089;&#1093;&#1077;&#1084;&#1091;, &#1080;&#1089;&#1090;&#1086;&#1095;&#1085;&#1080;&#1082; &#1080; replay-window</text></g><g class="message" data-participant-1="A" data-participant-2="D"><polygon fill="#334155" points="963.5183,335.0749,978.1016,340.9082,963.5183,346.7415,969.3516,340.9082" style="stroke:#334155;stroke-width:1.4583;"/><line style="stroke:#334155;stroke-width:1.4583;" x1="509.9111" x2="972.2683" y1="340.9082" y2="340.9082"/><text fill="#000000" font-family="DejaVu Sans" font-size="20.4167" lengthAdjust="spacing" textLength="436.1072" x="520.1194" y="333.1765">&#1072;&#1090;&#1086;&#1084;&#1072;&#1088;&#1085;&#1086; INSERT inbox(event_id UNIQUE)</text></g><g class="message" data-participant-1="D" data-participant-2="A"><polygon fill="#334155" points="525.9528,379.2578,511.3694,385.0911,525.9528,390.9245,520.1194,385.0911" style="stroke:#334155;stroke-width:1.4583;"/><line style="stroke:#334155;stroke-width:1.4583;stroke-dasharray:2.9167,2.9167;" x1="517.2028" x2="979.5599" y1="385.0911" y2="385.0911"/><text fill="#000000" font-family="DejaVu Sans" font-size="20.4167" lengthAdjust="spacing" textLength="84.0493" x="534.7028" y="377.3594">COMMIT</text></g><g class="message" data-participant-1="A" data-participant-2="P"><polygon fill="#334155" points="92.6683,423.4408,78.0849,429.2741,92.6683,435.1074,86.8349,429.2741" style="stroke:#334155;stroke-width:1.4583;"/><line style="stroke:#334155;stroke-width:1.4583;stroke-dasharray:2.9167,2.9167;" x1="83.9183" x2="508.4528" y1="429.2741" y2="429.2741"/><text fill="#000000" font-family="DejaVu Sans" font-size="20.4167" lengthAdjust="spacing" textLength="254.2413" x="101.4183" y="421.5424">200 (&#1087;&#1088;&#1080;&#1085;&#1103;&#1090;&#1086; &#1085;&#1072;&#1076;&#1105;&#1078;&#1085;&#1086;)</text></g><g class="message" data-participant-1="W" data-participant-2="D"><polygon fill="#334155" points="997.0599,467.6237,982.4766,473.457,997.0599,479.2904,991.2266,473.457" style="stroke:#334155;stroke-width:1.4583;"/><line style="stroke:#334155;stroke-width:1.4583;" x1="988.3099" x2="1462.6998" y1="473.457" y2="473.457"/><text fill="#000000" font-family="DejaVu Sans" font-size="20.4167" lengthAdjust="spacing" textLength="218.3726" x="1005.8099" y="465.7253">&#1074;&#1079;&#1103;&#1090;&#1100; &#1089;&#1086;&#1073;&#1099;&#1090;&#1080;&#1077; inbox</text></g><g class="message" data-participant-1="W" data-participant-2="D"><polygon fill="#334155" points="997.0599,535.5729,982.4766,541.4063,997.0599,547.2396,991.2266,541.4063" style="stroke:#334155;stroke-width:1.4583;"/><line style="stroke:#334155;stroke-width:1.4583;" x1="988.3099" x2="1462.6998" y1="541.4063" y2="541.4063"/><text fill="#000000" font-family="DejaVu Sans" font-size="20.4167" lengthAdjust="spacing" textLength="395.553" x="1005.8099" y="509.9082">&#1086;&#1076;&#1085;&#1072; &#1090;&#1088;&#1072;&#1085;&#1079;&#1072;&#1082;&#1094;&#1080;&#1103;: &#1080;&#1079;&#1084;&#1077;&#1085;&#1080;&#1090;&#1100; &#1087;&#1083;&#1072;&#1090;&#1105;&#1078;,</text><text fill="#000000" font-family="DejaVu Sans" font-size="20.4167" lengthAdjust="spacing" textLength="448.1399" x="1005.8099" y="533.6745">&#1079;&#1072;&#1082;&#1072;&#1079; &#1080; &#1086;&#1090;&#1084;&#1077;&#1090;&#1080;&#1090;&#1100; &#1089;&#1086;&#1073;&#1099;&#1090;&#1080;&#1077; &#1086;&#1073;&#1088;&#1072;&#1073;&#1086;&#1090;&#1072;&#1085;&#1085;&#1099;&#1084;</text></g><g class="message" data-participant-1="P" data-participant-2="A"><polygon fill="#334155" points="492.4111,579.7559,506.9944,585.5892,492.4111,591.4225,498.2444,585.5892" style="stroke:#334155;stroke-width:1.4583;"/><line style="stroke:#334155;stroke-width:1.4583;" x1="76.6266" x2="501.1611" y1="585.5892" y2="585.5892"/><text fill="#000000" font-family="DejaVu Sans" font-size="20.4167" lengthAdjust="spacing" textLength="260.2327" x="86.8349" y="577.8575">&#1087;&#1086;&#1074;&#1090;&#1086;&#1088; &#1090;&#1086;&#1075;&#1086; &#1078;&#1077; event_id</text></g><g class="message" data-participant-1="A" data-participant-2="D"><polygon fill="#334155" points="963.5183,623.9388,978.1016,629.7721,963.5183,635.6055,969.3516,629.7721" style="stroke:#334155;stroke-width:1.4583;"/><line style="stroke:#334155;stroke-width:1.4583;" x1="509.9111" x2="972.2683" y1="629.7721" y2="629.7721"/><text fill="#000000" font-family="DejaVu Sans" font-size="20.4167" lengthAdjust="spacing" textLength="360.6512" x="520.1194" y="622.0404">INSERT ON CONFLICT DO NOTHING</text></g><g class="message" data-participant-1="A" data-participant-2="P"><polygon fill="#334155" points="92.6683,668.1217,78.0849,673.9551,92.6683,679.7884,86.8349,673.9551" style="stroke:#334155;stroke-width:1.4583;"/><line style="stroke:#334155;stroke-width:1.4583;stroke-dasharray:2.9167,2.9167;" x1="83.9183" x2="508.4528" y1="673.9551" y2="673.9551"/><text fill="#000000" font-family="DejaVu Sans" font-size="20.4167" lengthAdjust="spacing" textLength="314.1355" x="101.4183" y="666.2233">200 &#1073;&#1077;&#1079; &#1087;&#1086;&#1074;&#1090;&#1086;&#1088;&#1085;&#1086;&#1075;&#1086; &#1101;&#1092;&#1092;&#1077;&#1082;&#1090;&#1072;</text></g><path d="M447.7083,698.7467 L447.7083,771.6634 A5.8333,5.8333 0 0 0 453.5417,777.4967 L1035.4167,777.4967 A5.8333,5.8333 0 0 0 1041.25,771.6634 L1041.25,707.4967 L1026.6667,692.9134 L453.5417,692.9134 A5.8333,5.8333 0 0 0 447.7083,698.7467" fill="#FFF7ED" style="stroke:#D97706;stroke-width:0.7292;"/><path d="M1026.6667,692.9134 L1026.6667,704.5801 A2.9167,2.9167 0 0 0 1029.5833,707.4967 L1041.25,707.4967 L1026.6667,692.9134" fill="#FFF7ED" style="stroke:#D97706;stroke-width:0.7292;"/><text fill="#000000" font-family="DejaVu Sans" font-size="20.4167" lengthAdjust="spacing" textLength="537.1737" x="466.9622" y="719.1563">&#1057;&#1073;&#1086;&#1081; &#1041;&#1044; &#1076;&#1086; COMMIT &#8594; &#1074;&#1088;&#1077;&#1084;&#1077;&#1085;&#1085;&#1072;&#1103; &#1086;&#1096;&#1080;&#1073;&#1082;&#1072;, &#1085;&#1077; 2xx.</text><text fill="#000000" font-family="DejaVu Sans" font-size="20.4167" lengthAdjust="spacing" textLength="515.8199" x="466.9622" y="742.9226">&#1056;&#1072;&#1079;&#1085;&#1099;&#1077; &#1089;&#1086;&#1073;&#1099;&#1090;&#1080;&#1103; &#1086;&#1076;&#1085;&#1086;&#1075;&#1086; payment_id &#1076;&#1086;&#1087;&#1091;&#1089;&#1090;&#1080;&#1084;&#1099;:</text><text fill="#000000" font-family="DejaVu Sans" font-size="20.4167" lengthAdjust="spacing" textLength="542.4573" x="466.9622" y="766.6888">&#1076;&#1077;&#1076;&#1091;&#1087;&#1083;&#1080;&#1082;&#1072;&#1094;&#1080;&#1103; &#1087;&#1086; event_id + &#1087;&#1077;&#1088;&#1077;&#1093;&#1086;&#1076;&#1099; &#1089;&#1086;&#1089;&#1090;&#1086;&#1103;&#1085;&#1080;&#1103;.</text></g></svg>