<svg xmlns="http://www.w3.org/2000/svg" xmlns:xlink="http://www.w3.org/1999/xlink" contentStyleType="text/css" data-diagram-type="DESCRIPTION" height="679.5833px" preserveAspectRatio="none" style="width:1837px;height:679px;background:#FFFFFF;" version="1.1" viewBox="0 0 1837 679" width="1837.5px" zoomAndPan="magnify"><title>&#1052;&#1086;&#1085;&#1086;&#1083;&#1080;&#1090; vs &#1052;&#1080;&#1082;&#1088;&#1086;&#1089;&#1077;&#1088;&#1074;&#1080;&#1089;&#1099;</title><defs/><g><g class="title" data-source-line="17"><text fill="#0F172A" font-family="DejaVu Sans" font-size="29.1667" font-weight="bold" lengthAdjust="spacing" textLength="455.3162" x="680.8836" y="41.6565">&#1052;&#1086;&#1085;&#1086;&#1083;&#1080;&#1090; vs &#1052;&#1080;&#1082;&#1088;&#1086;&#1089;&#1077;&#1088;&#1074;&#1080;&#1089;&#1099;</text></g><!--cluster MONO--><g class="cluster" data-entity="MONO" data-source-line="19" data-uid="ent0002" id="cluster_MONO"><rect fill="#ECEFF1" height="582.6042" rx="5.8333" ry="5.8333" style="stroke:#181818;stroke-width:2.1875;" width="555.625" x="1273.125" y="88.5544"/><text fill="#000000" font-family="DejaVu Sans" font-size="20.4167" font-weight="bold" lengthAdjust="spacing" textLength="120.0875" x="1490.8938" y="110.4223">&#1052;&#1054;&#1053;&#1054;&#1051;&#1048;&#1058;</text></g><!--cluster MICRO--><g class="cluster" data-entity="MICRO" data-source-line="32" data-uid="ent0011" id="cluster_MICRO"><rect fill="#ECEFF1" height="582.6042" rx="5.8333" ry="5.8333" style="stroke:#181818;stroke-width:2.1875;" width="1204.5833" x="10.2083" y="88.5544"/><text fill="#000000" font-family="DejaVu Sans" font-size="20.4167" font-weight="bold" lengthAdjust="spacing" textLength="199.0924" x="512.9538" y="110.4223">&#1052;&#1048;&#1050;&#1056;&#1054;&#1057;&#1045;&#1056;&#1042;&#1048;&#1057;&#1067;</text></g><!--entity UI--><g class="entity" data-entity="UI" data-source-line="20" data-uid="ent0003" id="entity_UI"><rect fill="#90A4AE" height="52.9329" rx="5.8333" ry="5.8333" style="stroke:#181818;stroke-width:2.1875;" width="50.1316" x="1307.8479" y="234.4169"/><text fill="#000000" font-family="DejaVu Sans" font-size="20.4167" lengthAdjust="spacing" textLength="20.965" x="1322.4312" y="267.9514">UI</text></g><!--entity BL--><g class="entity" data-entity="BL" data-source-line="21" data-uid="ent0004" id="entity_BL"><rect fill="#78909C" height="76.6992" rx="5.8333" ry="5.8333" style="stroke:#181818;stroke-width:2.1875;" width="354.1984" x="1307.4833" y="417.569"/><text fill="#000000" font-family="DejaVu Sans" font-size="20.4167" lengthAdjust="spacing" textLength="157.0129" x="1322.0667" y="451.1035">&#1041;&#1080;&#1079;&#1085;&#1077;&#1089;-&#1083;&#1086;&#1075;&#1080;&#1082;&#1072;</text><text fill="#000000" font-family="DejaVu Sans" font-size="20.4167" lengthAdjust="spacing" textLength="325.0317" x="1322.0667" y="474.8698">(&#1077;&#1076;&#1080;&#1085;&#1099;&#1081; &#1082;&#1086;&#1076;, &#1077;&#1076;&#1080;&#1085;&#1099;&#1081; &#1076;&#1077;&#1087;&#1083;&#1086;&#1081;)</text></g><!--entity DB1--><g class="entity" data-entity="DB1" data-source-line="22" data-uid="ent0005" id="entity_DB1"><rect fill="#B0BEC5" height="52.9329" rx="5.8333" ry="5.8333" style="stroke:#181818;stroke-width:2.1875;" width="228.1893" x="1370.4833" y="583.2211"/><text fill="#000000" font-family="DejaVu Sans" font-size="20.4167" lengthAdjust="spacing" textLength="199.0226" x="1385.0667" y="616.7556">&#1054;&#1076;&#1085;&#1072; &#1073;&#1072;&#1079;&#1072; &#1076;&#1072;&#1085;&#1085;&#1099;&#1093;</text></g><g class="entity" data-entity="GMN8" data-source-line="26" data-uid="ent0009" id="entity_GMN8"><path d="M1409.3188,223.7711 L1409.3188,297.9865 A5.8333,5.8333 0 0 0 1415.1521,303.8199 L1787.3546,303.8199 A5.8333,5.8333 0 0 0 1793.188,297.9865 L1793.188,232.5211 L1778.6046,217.9377 L1415.1521,217.9377 A5.8333,5.8333 0 0 0 1409.3188,223.7711" fill="#FFF7ED" style="stroke:#D97706;stroke-width:0.7292;"/><path d="M1778.6046,217.9377 L1778.6046,229.6044 A2.9167,2.9167 0 0 0 1781.5213,232.5211 L1793.188,232.5211 L1778.6046,217.9377" fill="#FFF7ED" style="stroke:#D97706;stroke-width:1.4583;"/><text fill="#000000" font-family="DejaVu Sans" font-size="20.4167" lengthAdjust="spacing" textLength="331.7808" x="1418.0688" y="244.1806">+ &#1055;&#1088;&#1086;&#1089;&#1090;&#1086;&#1081; &#1089;&#1090;&#1072;&#1088;&#1090;, &#1086;&#1076;&#1080;&#1085; &#1076;&#1077;&#1087;&#1083;&#1086;&#1081;</text><text fill="#000000" font-family="DejaVu Sans" font-size="20.4167" lengthAdjust="spacing" textLength="353.2442" x="1418.0688" y="267.9469">- &#1054;&#1073;&#1097;&#1072;&#1103; &#1089;&#1073;&#1086;&#1088;&#1082;&#1072;, &#1082;&#1072;&#1089;&#1082;&#1072;&#1076;&#1085;&#1099;&#1077; &#1089;&#1073;&#1086;&#1080;</text><text fill="#000000" font-family="DejaVu Sans" font-size="20.4167" lengthAdjust="spacing" textLength="349.8149" x="1418.0688" y="291.7132">- &#1058;&#1103;&#1078;&#1077;&#1083;&#1086; &#1084;&#1072;&#1089;&#1096;&#1090;&#1072;&#1073;&#1080;&#1088;&#1086;&#1074;&#1072;&#1090;&#1100; &#1095;&#1072;&#1089;&#1090;&#1100;</text></g><!--entity O--><g class="entity" data-entity="O" data-source-line="33" data-uid="ent0012" id="entity_O"><rect fill="#4FC3F7" height="76.6992" rx="5.8333" ry="5.8333" style="stroke:#181818;stroke-width:2.1875;" width="102.2998" x="45.1062" y="222.5315"/><text fill="#000000" font-family="DejaVu Sans" font-size="20.4167" lengthAdjust="spacing" textLength="69.0159" x="59.6896" y="256.066">Orders</text><text fill="#000000" font-family="DejaVu Sans" font-size="20.4167" lengthAdjust="spacing" textLength="73.1331" x="59.6896" y="279.8323">service</text></g><!--entity P--><g class="entity" data-entity="P" data-source-line="34" data-uid="ent0013" id="entity_P"><rect fill="#81C784" height="76.6992" rx="5.8333" ry="5.8333" style="stroke:#181818;stroke-width:2.1875;" width="130.1036" x="340.3604" y="222.5315"/><text fill="#000000" font-family="DejaVu Sans" font-size="20.4167" lengthAdjust="spacing" textLength="100.9369" x="354.9437" y="256.066">Payments</text><text fill="#000000" font-family="DejaVu Sans" font-size="20.4167" lengthAdjust="spacing" textLength="73.1331" x="354.9437" y="279.8323">service</text></g><!--entity U--><g class="entity" data-entity="U" data-source-line="35" data-uid="ent0014" id="entity_U"><rect fill="#FFB74D" height="76.6992" rx="5.8333" ry="5.8333" style="stroke:#181818;stroke-width:2.1875;" width="102.2998" x="521.9812" y="222.5315"/><text fill="#000000" font-family="DejaVu Sans" font-size="20.4167" lengthAdjust="spacing" textLength="57.1726" x="536.5646" y="256.066">Users</text><text fill="#000000" font-family="DejaVu Sans" font-size="20.4167" lengthAdjust="spacing" textLength="73.1331" x="536.5646" y="279.8323">service</text></g><!--entity I--><g class="entity" data-entity="I" data-source-line="36" data-uid="ent0015" id="entity_I"><rect fill="#BA68C8" height="76.6992" rx="5.8333" ry="5.8333" style="stroke:#181818;stroke-width:2.1875;" width="126.6842" x="44.5813" y="417.569"/><text fill="#000000" font-family="DejaVu Sans" font-size="20.4167" lengthAdjust="spacing" textLength="97.5175" x="59.1646" y="451.1035">Inventory</text><text fill="#000000" font-family="DejaVu Sans" font-size="20.4167" lengthAdjust="spacing" textLength="73.1331" x="59.1646" y="474.8698">service</text></g><!--entity DO--><g class="entity" data-entity="DO" data-source-line="37" data-uid="ent0016" id="entity_DO"><rect fill="#E1F5FE" height="52.9329" rx="5.8333" ry="5.8333" style="stroke:#181818;stroke-width:2.1875;" width="82.3317" x="222.7896" y="429.4544"/><text fill="#000000" font-family="DejaVu Sans" font-size="20.4167" lengthAdjust="spacing" textLength="53.1651" x="237.3729" y="462.9889">DB-O</text></g><!--entity DP--><g class="entity" data-entity="DP" data-source-line="38" data-uid="ent0017" id="entity_DP"><rect fill="#E8F5E9" height="52.9329" rx="5.8333" ry="5.8333" style="stroke:#181818;stroke-width:2.1875;" width="78.5734" x="366.1292" y="429.4544"/><text fill="#000000" font-family="DejaVu Sans" font-size="20.4167" lengthAdjust="spacing" textLength="49.4067" x="380.7125" y="462.9889">DB-P</text></g><!--entity DU--><g class="entity" data-entity="DU" data-source-line="39" data-uid="ent0018" id="entity_DU"><rect fill="#FFF3E0" height="52.9329" rx="5.8333" ry="5.8333" style="stroke:#181818;stroke-width:2.1875;" width="81.2052" x="532.525" y="429.4544"/><text fill="#000000" font-family="DejaVu Sans" font-size="20.4167" lengthAdjust="spacing" textLength="52.0386" x="547.1083" y="462.9889">DB-U</text></g><!--entity DI--><g class="entity" data-entity="DI" data-source-line="40" data-uid="ent0019" id="entity_DI"><rect fill="#F3E5F5" height="52.9329" rx="5.8333" ry="5.8333" style="stroke:#181818;stroke-width:2.1875;" width="72.2829" x="71.7792" y="583.2211"/><text fill="#000000" font-family="DejaVu Sans" font-size="20.4167" lengthAdjust="spacing" textLength="43.1163" x="86.3625" y="616.7556">DB-I</text></g><g class="entity" data-entity="GMN26" data-source-line="48" data-uid="ent0027" id="entity_GMN26"><path d="M675.6896,223.7711 L675.6896,297.9865 A5.8333,5.8333 0 0 0 681.5229,303.8199 L1173.484,303.8199 A5.8333,5.8333 0 0 0 1179.3173,297.9865 L1179.3173,232.5211 L1164.734,217.9377 L681.5229,217.9377 A5.8333,5.8333 0 0 0 675.6896,223.7711" fill="#FFF7ED" style="stroke:#D97706;stroke-width:0.7292;"/><path d="M1164.734,217.9377 L1164.734,229.6044 A2.9167,2.9167 0 0 0 1167.6506,232.5211 L1179.3173,232.5211 L1164.734,217.9377" fill="#FFF7ED" style="stroke:#D97706;stroke-width:1.4583;"/><text fill="#000000" font-family="DejaVu Sans" font-size="20.4167" lengthAdjust="spacing" textLength="391.2663" x="684.4396" y="244.1806">+ &#1053;&#1077;&#1079;&#1072;&#1074;&#1080;&#1089;&#1080;&#1084;&#1099;&#1077; &#1076;&#1077;&#1087;&#1083;&#1086;&#1080; &#1080; &#1084;&#1072;&#1089;&#1096;&#1090;&#1072;&#1073;&#1099;</text><text fill="#000000" font-family="DejaVu Sans" font-size="20.4167" lengthAdjust="spacing" textLength="377.0504" x="684.4396" y="267.9469">+ &#1057;&#1073;&#1086;&#1081; &#1089;&#1077;&#1088;&#1074;&#1080;&#1089;&#1072; &#1085;&#1077; &#1088;&#1086;&#1085;&#1103;&#1077;&#1090; &#1089;&#1080;&#1089;&#1090;&#1077;&#1084;&#1091;</text><text fill="#000000" font-family="DejaVu Sans" font-size="20.4167" lengthAdjust="spacing" textLength="473.0027" x="684.4396" y="291.7132">- &#1057;&#1083;&#1086;&#1078;&#1085;&#1086;&#1089;&#1090;&#1100;: &#1089;&#1077;&#1090;&#1100;, &#1076;&#1072;&#1085;&#1085;&#1099;&#1077;, &#1085;&#1072;&#1073;&#1083;&#1102;&#1076;&#1072;&#1077;&#1084;&#1086;&#1089;&#1090;&#1100;</text></g><!--link UI to BL--><!--link BL to DB1--><g class="link" data-entity-1="BL" data-entity-2="DB1" data-source-line="24" data-uid="lnk7" id="link_BL_DB1"><path d="M1484.5833,494.6711 C1484.5833,522.0586 1484.5833,549.8252 1484.5833,573.9606" fill="none" id="BL-to-DB1" style="stroke:#455A64;stroke-width:1.4583;"/><polygon fill="#455A64" points="1484.5833,582.7106,1490.4167,569.5856,1484.5833,575.419,1478.75,569.5856,1484.5833,582.7106" style="stroke:#455A64;stroke-width:1.4583;"/></g><!--link MONO to GMN8--><g class="link" data-entity-1="MONO" data-entity-2="GMN8" data-source-line="26" data-uid="lnk10" id="link_MONO_GMN8"><path d="M1285.025,129.0669 C1290.9021,131.5023 1408.8813,180.1231 1499.0208,217.2815" fill="none" id="MONO-GMN8" style="stroke:#455A64;stroke-width:1.4583;stroke-dasharray:10.2083,10.2083;"/></g><!--link O to DO--><g class="link" data-entity-1="O" data-entity-2="DO" data-source-line="41" data-uid="lnk20" id="link_O_DO"><path d="M138.0167,299.5461 C153.4312,313.9836 170.6688,331.0169 185.2083,347.569 C208.3375,373.8919 226.8199,399.4083 242.0449,421.677" fill="none" id="O-to-DO" style="stroke:#455A64;stroke-width:1.4583;"/><polygon fill="#455A64" points="246.9833,428.9002,244.3911,414.7732,242.868,422.8809,234.7602,421.3577,246.9833,428.9002" style="stroke:#455A64;stroke-width:1.4583;"/></g><!--link P to DP--><g class="link" data-entity-1="P" data-entity-2="DP" data-source-line="42" data-uid="lnk21" id="link_P_DP"><path d="M405.4167,299.8377 C405.4167,337.8419 405.4167,386.8565 405.4167,419.9752" fill="none" id="P-to-DP" style="stroke:#455A64;stroke-width:1.4583;"/><polygon fill="#455A64" points="405.4167,428.7252,411.25,415.6002,405.4167,421.4336,399.5833,415.6002,405.4167,428.7252" style="stroke:#455A64;stroke-width:1.4583;"/></g><!--link U to DU--><g class="link" data-entity-1="U" data-entity-2="DU" data-source-line="43" data-uid="lnk22" id="link_U_DU"><path d="M573.125,299.8377 C573.125,337.8419 573.125,386.8565 573.125,419.9752" fill="none" id="U-to-DU" style="stroke:#455A64;stroke-width:1.4583;"/><polygon fill="#455A64" points="573.125,428.7252,578.9583,415.6002,573.125,421.4336,567.2917,415.6002,573.125,428.7252" style="stroke:#455A64;stroke-width:1.4583;"/></g><!--link I to DI--><g class="link" data-entity-1="I" data-entity-2="DI" data-source-line="44" data-uid="lnk23" id="link_I_DI"><path d="M107.9167,494.6711 C107.9167,522.0586 107.9167,549.8252 107.9167,573.9606" fill="none" id="I-to-DI" style="stroke:#455A64;stroke-width:1.4583;"/><polygon fill="#455A64" points="107.9167,582.7106,113.75,569.5856,107.9167,575.419,102.0833,569.5856,107.9167,582.7106" style="stroke:#455A64;stroke-width:1.4583;"/></g><!--link O to P--><g class="link" data-entity-1="O" data-entity-2="P" data-source-line="45" data-uid="lnk24" id="link_O_P"><path d="M147.9917,260.8711 C200.7687,260.8711 274.0646,260.8711 331.2896,260.8711" fill="none" id="O-to-P" style="stroke:#455A64;stroke-width:1.4583;"/><polygon fill="#455A64" points="340.0396,260.8711,326.9146,255.0377,332.7479,260.8711,326.9146,266.7044,340.0396,260.8711" style="stroke:#455A64;stroke-width:1.4583;"/><text fill="#000000" font-family="DejaVu Sans" font-size="20.4167" lengthAdjust="spacing" textLength="141.1621" x="173.8771" y="250.6556">REST / events</text></g><!--link O to I--><g class="link" data-entity-1="O" data-entity-2="I" data-source-line="46" data-uid="lnk25" id="link_O_I"><path d="M98.525,299.8377 C100.5813,333.6856 103.0546,374.4913 105.1109,408.3247" fill="none" id="O-to-I" style="stroke:#455A64;stroke-width:1.4583;"/><polygon fill="#455A64" points="105.6417,417.0586,110.668,403.6039,105.1993,409.7803,99.0229,404.3116,105.6417,417.0586" style="stroke:#455A64;stroke-width:1.4583;"/><text fill="#000000" font-family="DejaVu Sans" font-size="20.4167" lengthAdjust="spacing" textLength="68.7866" x="104.2417" y="367.9785">events</text></g><!--link MICRO to GMN26--><g class="link" data-entity-1="MICRO" data-entity-2="GMN26" data-source-line="48" data-uid="lnk28" id="link_MICRO_GMN26"><path d="M930.4021,129.3586 C930.3,134.0106 929.25,181.2898 928.4333,217.5148" fill="none" id="MICRO-GMN26" style="stroke:#455A64;stroke-width:1.4583;stroke-dasharray:10.2083,10.2083;"/></g><!--link MONO to MICRO--><g class="link" data-entity-1="MONO" data-entity-2="MICRO" data-source-line="54" data-uid="lnk29" id="link_MONO_MICRO"><path d="M1272.6846,128.4544 C1272.1721,128.4544 1271.6448,128.4544 1271.1029,128.4544 C1268.9355,128.4544 1266.5353,128.4544 1263.9203,128.4544 C1253.4603,128.4544 1239.5629,128.4544 1223.3724,128.4544 C1221.3485,128.4544 1219.2889,128.4544 1217.1956,128.4544 C1216.6723,128.4544 1216.1469,128.4544 1215.6194,128.4544 C1215.3557,128.4544 1223.8414,128.4544 1223.5767,128.4544" fill="none" id="MONO-to-MICRO" style="stroke:#455A64;stroke-width:1.4583;"/><polygon fill="#455A64" points="1214.8267,128.4544,1227.9517,134.2877,1222.1183,128.4544,1227.9517,122.6211,1214.8267,128.4544" style="stroke:#455A64;stroke-width:1.4583;"/><text fill="#000000" font-family="DejaVu Sans" font-size="20.4167" lengthAdjust="spacing" textLength="299.7601" x="958.125" y="94.9056">&#1076;&#1077;&#1082;&#1086;&#1084;&#1087;&#1086;&#1079;&#1080;&#1094;&#1080;&#1103; &#1087;&#1086; &#1075;&#1088;&#1072;&#1085;&#1080;&#1094;&#1072;&#1084;</text><text fill="#000000" font-family="DejaVu Sans" font-size="20.4167" lengthAdjust="spacing" textLength="287.0994" x="964.4554" y="118.6719">&#1076;&#1086;&#1084;&#1077;&#1085;&#1072; (bounded contexts)</text></g></g></svg>