<svg xmlns="http://www.w3.org/2000/svg" xmlns:xlink="http://www.w3.org/1999/xlink" contentStyleType="text/css" data-diagram-type="DESCRIPTION" height="991.6667px" preserveAspectRatio="none" style="width:1273px;height:991px;background:#FFFFFF;" version="1.1" viewBox="0 0 1273 991" width="1273.125px" zoomAndPan="magnify"><title>&#1040;&#1085;&#1090;&#1080;&#1087;&#1072;&#1090;&#1090;&#1077;&#1088;&#1085;: &#1086;&#1076;&#1085;&#1072; &#1076;&#1080;&#1072;&#1075;&#1088;&#1072;&#1084;&#1084;&#1072; &#1087;&#1099;&#1090;&#1072;&#1077;&#1090;&#1089;&#1103; &#1073;&#1099;&#1090;&#1100; &#1074;&#1089;&#1077;&#1084; &#1089;&#1088;&#1072;&#1079;&#1091; (&#1073;&#1099;&#1083;&#1086; &#8594; &#1089;&#1090;&#1072;&#1083;&#1086;)</title><defs/><g><g class="title" data-source-line="12"><text fill="#0F172A" font-family="DejaVu Sans" font-size="29.1667" font-weight="bold" lengthAdjust="spacing" textLength="1233.431" x="14.5833" y="41.6565">&#1040;&#1085;&#1090;&#1080;&#1087;&#1072;&#1090;&#1090;&#1077;&#1088;&#1085;: &#1086;&#1076;&#1085;&#1072; &#1076;&#1080;&#1072;&#1075;&#1088;&#1072;&#1084;&#1084;&#1072; &#1087;&#1099;&#1090;&#1072;&#1077;&#1090;&#1089;&#1103; &#1073;&#1099;&#1090;&#1100; &#1074;&#1089;&#1077;&#1084; &#1089;&#1088;&#1072;&#1079;&#1091; (&#1073;&#1099;&#1083;&#1086; &#8594; &#1089;&#1090;&#1072;&#1083;&#1086;)</text></g><!--cluster ????: ?????????????? ??????--><g class="cluster" data-entity="..... .............. ......" data-source-line="13" data-uid="ent0002" id="cluster_..... .............. ......"><rect fill="#FA8072" height="832.3875" rx="5.8333" ry="5.8333" style="stroke:#181818;stroke-width:1.4583;" width="392.2917" x="817.9655" y="150.7789"/><text fill="#000000" font-family="DejaVu Sans" font-size="20.4167" font-weight="bold" lengthAdjust="spacing" textLength="369.6434" x="829.2897" y="172.6468">&#1041;&#1067;&#1051;&#1054;: &#171;&#1059;&#1085;&#1080;&#1074;&#1077;&#1088;&#1089;&#1072;&#1083;&#1100;&#1085;&#1072;&#1103; &#1089;&#1093;&#1077;&#1084;&#1072;&#187;</text></g><!--cluster ?????: ??? ?????????, ??? ???????--><g class="cluster" data-entity="...... ... .......... ... ......." data-source-line="24" data-uid="ent0012" id="cluster_...... ... .......... ... ......."><rect fill="#90EE90" height="178.7771" rx="5.8333" ry="5.8333" style="stroke:#181818;stroke-width:1.4583;" width="708.75" x="74.2155" y="168.0602"/><text fill="#000000" font-family="DejaVu Sans" font-size="20.4167" font-weight="bold" lengthAdjust="spacing" textLength="435.9277" x="210.6266" y="189.928">&#1057;&#1058;&#1040;&#1051;&#1054;: &#1090;&#1088;&#1080; &#1076;&#1080;&#1072;&#1075;&#1088;&#1072;&#1084;&#1084;&#1099;, &#1090;&#1088;&#1080; &#1074;&#1086;&#1087;&#1088;&#1086;&#1089;&#1072;</text></g><!--entity M--><g class="entity" data-entity="M" data-source-line="14" data-uid="ent0003" id="entity_M"><ellipse cx="898.1672" cy="241.9247" fill="#F1F1F1" rx="11.6667" ry="11.6667" style="stroke:#181818;stroke-width:0.7292;"/><path d="M898.1672,253.5914 L898.1672,292.9664 M879.2089,265.2581 L917.1256,265.2581 M898.1672,292.9664 L879.2089,314.8414 M898.1672,292.9664 L917.1256,314.8414" fill="none" style="stroke:#181818;stroke-width:0.7292;"/><text fill="#000000" font-family="DejaVu Sans" font-size="20.4167" lengthAdjust="spacing" textLength="114.116" x="841.1092" y="335.9801">&#1052;&#1077;&#1085;&#1077;&#1076;&#1078;&#1077;&#1088;</text></g><!--entity Z--><g class="entity" data-entity="Z" data-source-line="15" data-uid="ent0004" id="entity_Z"><ellipse cx="899.636" cy="460.8113" fill="#F1F1F1" rx="47.7205" ry="21.1803" style="stroke:#181818;stroke-width:0.7292;"/><text fill="#000000" font-family="DejaVu Sans" font-size="20.4167" lengthAdjust="spacing" textLength="61.2998" x="868.9861" y="467.5903">&#1047;&#1072;&#1082;&#1072;&#1079;</text></g><!--entity O--><g class="entity" data-entity="O" data-source-line="16" data-uid="ent0005" id="entity_O"><path d="M851.828,595.4102 C851.828,580.8268 899.6283,580.8268 899.6283,580.8268 C899.6283,580.8268 947.4286,580.8268 947.4286,595.4102 L947.4286,632.3014 C947.4286,646.8848 899.6283,646.8848 899.6283,646.8848 C899.6283,646.8848 851.828,646.8848 851.828,632.3014 L851.828,595.4102" fill="#F1F1F1" style="stroke:#181818;stroke-width:0.7292;"/><path d="M851.828,595.4102 C851.828,609.9935 899.6283,609.9935 899.6283,609.9935 C899.6283,609.9935 947.4286,609.9935 947.4286,595.4102" fill="none" style="stroke:#181818;stroke-width:0.7292;"/><text fill="#000000" font-family="DejaVu Sans" font-size="20.4167" lengthAdjust="spacing" textLength="66.4339" x="866.4113" y="634.778">Oracle</text></g><!--entity K--><g class="entity" data-entity="K" data-source-line="17" data-uid="ent0006" id="entity_K"><polygon fill="#F1F1F1" points="851.9592,750.431,866.5426,735.8477,947.3078,735.8477,947.3078,788.7806,932.7244,803.3639,851.9592,803.3639,851.9592,750.431" style="stroke:#181818;stroke-width:0.7292;"/><line style="stroke:#181818;stroke-width:0.7292;" x1="932.7244" x2="947.3078" y1="750.431" y2="735.8477"/><line style="stroke:#181818;stroke-width:0.7292;" x1="851.9592" x2="932.7244" y1="750.431" y2="750.431"/><line style="stroke:#181818;stroke-width:0.7292;" x1="932.7244" x2="932.7244" y1="750.431" y2="803.3639"/><text fill="#000000" font-family="DejaVu Sans" font-size="20.4167" lengthAdjust="spacing" textLength="37.0152" x="873.8342" y="783.9655">K8s</text></g><!--entity BL--><g class="entity" data-entity="BL" data-source-line="18" data-uid="ent0007" id="entity_BL"><rect fill="#F1F1F1" height="67.5163" rx="5.8333" ry="5.8333" style="stroke:#181818;stroke-width:0.7292;" width="120.9292" x="840.628" y="892.3122"/><rect fill="#F1F1F1" height="14.5833" style="stroke:#181818;stroke-width:0.7292;" width="21.875" x="932.3905" y="899.6039"/><rect fill="#F1F1F1" height="2.9167" style="stroke:#181818;stroke-width:0.7292;" width="5.8333" x="929.4738" y="902.5206"/><rect fill="#F1F1F1" height="2.9167" style="stroke:#181818;stroke-width:0.7292;" width="5.8333" x="929.4738" y="908.3539"/><text fill="#000000" font-family="DejaVu Sans" font-size="20.4167" lengthAdjust="spacing" textLength="62.5958" x="862.503" y="940.4301">Billing</text></g><!--entity A1--><g class="entity" data-entity="A1" data-source-line="25" data-uid="ent0013" id="entity_A1"><rect fill="#F1F1F1" height="76.6992" rx="5.8333" ry="5.8333" style="stroke:#181818;stroke-width:0.7292;" width="198.3219" x="97.5488" y="246.8102"/><text fill="#000000" font-family="DejaVu Sans" font-size="20.4167" lengthAdjust="spacing" textLength="101.4752" x="112.1322" y="280.3447">Use Case:</text><text fill="#000000" font-family="DejaVu Sans" font-size="20.4167" lengthAdjust="spacing" textLength="169.1553" x="112.1322" y="304.111">&#1050;&#1058;&#1054; &#1095;&#1090;&#1086; &#1076;&#1077;&#1083;&#1072;&#1077;&#1090;</text></g><!--entity A2--><g class="entity" data-entity="A2" data-source-line="26" data-uid="ent0014" id="entity_A2"><rect fill="#F1F1F1" height="76.6992" rx="5.8333" ry="5.8333" style="stroke:#181818;stroke-width:0.7292;" width="200.4753" x="347.3176" y="246.8102"/><text fill="#000000" font-family="DejaVu Sans" font-size="20.4167" lengthAdjust="spacing" textLength="107.5863" x="361.9009" y="280.3447">Sequence:</text><text fill="#000000" font-family="DejaVu Sans" font-size="20.4167" lengthAdjust="spacing" textLength="171.3086" x="361.9009" y="304.111">&#1050;&#1040;&#1050; &#1080;&#1076;&#1105;&#1090; &#1074;&#1099;&#1079;&#1086;&#1074;</text></g><!--entity A3--><g class="entity" data-entity="A3" data-source-line="27" data-uid="ent0015" id="entity_A3"><rect fill="#F1F1F1" height="76.6992" rx="5.8333" ry="5.8333" style="stroke:#181818;stroke-width:0.7292;" width="160.9279" x="598.953" y="246.8102"/><text fill="#000000" font-family="DejaVu Sans" font-size="20.4167" lengthAdjust="spacing" textLength="131.7613" x="613.5363" y="280.3447">Deployment:</text><text fill="#000000" font-family="DejaVu Sans" font-size="20.4167" lengthAdjust="spacing" textLength="115.9403" x="613.5363" y="304.111">&#1043;&#1044;&#1045; &#1078;&#1080;&#1074;&#1105;&#1090;</text></g><g class="entity" data-entity="GMN19" data-source-line="32" data-uid="ent0020" id="entity_GMN19"><path d="M185.4134,435.5914 L185.4134,486.0406 A5.8333,5.8333 0 0 0 191.2467,491.874 L788.4314,491.874 A5.8333,5.8333 0 0 0 794.2647,486.0406 L794.2647,444.3414 L779.6814,429.7581 L528.5447,429.7581 L638.2842,324.1018 L516.878,429.7581 L191.2467,429.7581 A5.8333,5.8333 0 0 0 185.4134,435.5914" fill="#FFF7ED" style="stroke:#D97706;stroke-width:0.7292;"/><path d="M779.6814,429.7581 L779.6814,441.4247 A2.9167,2.9167 0 0 0 782.5981,444.3414 L794.2647,444.3414 L779.6814,429.7581" fill="#FFF7ED" style="stroke:#D97706;stroke-width:0.7292;"/><text fill="#000000" font-family="DejaVu Sans" font-size="20.4167" lengthAdjust="spacing" textLength="511.1344" x="194.1634" y="456.001">&#1055;&#1088;&#1072;&#1074;&#1080;&#1083;&#1086;: &#1077;&#1089;&#1083;&#1080; &#1085;&#1072; &#1076;&#1080;&#1072;&#1075;&#1088;&#1072;&#1084;&#1084;&#1077; &#1089;&#1084;&#1077;&#1096;&#1072;&#1085;&#1099; &#1072;&#1082;&#1090;&#1105;&#1088;&#1099;,</text><text fill="#000000" font-family="DejaVu Sans" font-size="20.4167" lengthAdjust="spacing" textLength="578.2263" x="194.1634" y="479.7672">&#1090;&#1072;&#1073;&#1083;&#1080;&#1094;&#1099; &#1080; &#1085;&#1086;&#1076;&#1099; &#8212; &#1077;&#1105; &#1085;&#1077;&#1083;&#1100;&#1079;&#1103; &#1087;&#1088;&#1086;&#1095;&#1080;&#1090;&#1072;&#1090;&#1100; &#1079;&#1072; 30 &#1089;&#1077;&#1082;&#1091;&#1085;&#1076;</text></g><!--link M to Z--><g class="link" data-entity-1="M" data-entity-2="Z" data-source-line="19" data-uid="lnk8" id="link_M_Z"><path d="M898.6405,341.2664 C898.9176,374.6768 899.198,406.6875 899.3876,430.5313" fill="none" id="M-to-Z" style="stroke:#334155;stroke-width:1.4583;"/><polygon fill="#334155" points="899.4572,439.281,905.186,426.11,899.3992,431.9896,893.5197,426.2028,899.4572,439.281" style="stroke:#334155;stroke-width:1.4583;"/></g><!--link Z to O--><g class="link" data-entity-1="Z" data-entity-2="O" data-source-line="20" data-uid="lnk9" id="link_Z_O"><path d="M899.6322,482.5206 C899.6322,507.6477 899.6322,542.0497 899.6322,571.6685" fill="none" id="Z-to-O" style="stroke:#334155;stroke-width:1.4583;"/><polygon fill="#334155" points="899.6322,580.4185,905.4655,567.2935,899.6322,573.1268,893.7988,567.2935,899.6322,580.4185" style="stroke:#334155;stroke-width:1.4583;"/></g><!--link O to K--><g class="link" data-entity-1="O" data-entity-2="K" data-source-line="21" data-uid="lnk10" id="link_O_K"><path d="M899.6322,647.356 C899.6322,673.256 899.6322,709.5831 899.6322,735.6143" fill="none" id="O-K" style="stroke:#334155;stroke-width:1.4583;stroke-dasharray:10.2083,10.2083;"/></g><!--link K to BL--><g class="link" data-entity-1="K" data-entity-2="BL" data-source-line="22" data-uid="lnk11" id="link_K_BL"><path d="M899.9384,803.9956 C900.1863,829.9102 900.4526,857.0793 900.7005,882.9793" fill="none" id="K-to-BL" style="stroke:#334155;stroke-width:1.4583;"/><polygon fill="#334155" points="900.7842,891.7289,906.4917,878.5487,900.7145,884.4376,894.8256,878.6603,900.7842,891.7289" style="stroke:#334155;stroke-width:1.4583;"/></g><!--link A1 to A2--><!--link A2 to A3--><!--link M to A1--><g class="link" data-entity-1="M" data-entity-2="A1" data-source-line="31" data-uid="lnk18" id="link_M_A1"><path d="M868.453,228.9018 C848.6197,197.1685 819.4822,159.8352 782.9655,139.1122 C726.9801,107.3352 703.5738,124.5581 639.3197,120.4018 C498.4009,111.2581 447.0967,73.3268 322.1322,139.1122 C276.2967,163.2477 244.6161,204.27 223.1057,238.745" fill="none" id="M-to-A1" style="stroke:#334155;stroke-width:1.4583;"/><polygon fill="#334155" points="218.4738,246.1685,230.3706,238.1211,222.3337,239.9822,220.4726,231.9453,218.4738,246.1685" style="stroke:#334155;stroke-width:1.4583;"/><text fill="#000000" font-family="DejaVu Sans" font-size="20.4167" lengthAdjust="spacing" textLength="142.5079" x="496.403" y="98.2718">&#1088;&#1077;&#1092;&#1072;&#1082;&#1090;&#1086;&#1088;&#1080;&#1085;&#1075;</text><text fill="#000000" font-family="DejaVu Sans" font-size="20.4167" lengthAdjust="spacing" textLength="80.8891" x="527.2124" y="122.0381">&#1084;&#1086;&#1076;&#1077;&#1083;&#1080;</text></g></g></svg>