<svg xmlns="http://www.w3.org/2000/svg" xmlns:xlink="http://www.w3.org/1999/xlink" contentStyleType="text/css" data-diagram-type="SEQUENCE" height="930.4167px" preserveAspectRatio="none" style="width:1258px;height:930px;background:#FFFFFF;" version="1.1" viewBox="0 0 1258 930" width="1258.5417px" zoomAndPan="magnify"><title>Sequence: &#1089;&#1080;&#1085;&#1093;&#1088;&#1086;&#1085;&#1085;&#1099;&#1081; &#1087;&#1083;&#1072;&#1090;&#1105;&#1078; &#1089; alt/&#1086;&#1087;&#1094;&#1080;&#1103;&#1084;&#1080; &#1080; &#1090;&#1072;&#1081;&#1084;&#1072;&#1091;&#1090;&#1086;&#1084; &#1101;&#1082;&#1074;&#1072;&#1081;&#1088;&#1080;&#1085;&#1075;&#1072;</title><defs/><g><text fill="#0F172A" font-family="DejaVu Sans" font-size="29.1667" font-weight="bold" lengthAdjust="spacing" textLength="1184.0556" x="38.91" y="48.9482">Sequence: &#1089;&#1080;&#1085;&#1093;&#1088;&#1086;&#1085;&#1085;&#1099;&#1081; &#1087;&#1083;&#1072;&#1090;&#1105;&#1078; &#1089; alt/&#1086;&#1087;&#1094;&#1080;&#1103;&#1084;&#1080; &#1080; &#1090;&#1072;&#1081;&#1084;&#1072;&#1091;&#1090;&#1086;&#1084; &#1101;&#1082;&#1074;&#1072;&#1081;&#1088;&#1080;&#1085;&#1075;&#1072;</text><rect fill="#90EE90" height="447.5033" rx="5.8333" ry="5.8333" style="stroke:#000000;stroke-width:2.1875;" width="1029.6175" x="219.1331" y="340.4753"/><path d="M219.1331,457.4154 L1248.7506,457.4154 L1248.7506,566.6309 A5.8333,5.8333 0 0 1 1242.9173,572.4642 L224.9664,572.4642 A5.8333,5.8333 0 0 1 219.1331,566.6309 L219.1331,457.4154" fill="#FA8072" style="stroke:none;stroke-width:1.4583;"/><path d="M219.1331,572.4642 L1248.7506,572.4642 L1248.7506,782.1452 A5.8333,5.8333 0 0 1 1242.9173,787.9785 L224.9664,787.9785 A5.8333,5.8333 0 0 1 219.1331,782.1452 L219.1331,572.4642" fill="#FFA500" style="stroke:none;stroke-width:1.4583;"/><g><title>.......</title><rect fill="#000000" fill-opacity="0.00000" height="629.6354" width="11.6667" x="52.2493" y="183.1348"/><line style="stroke:#181818;stroke-width:0.7292;stroke-dasharray:7.2917,7.2917;" x1="56.875" x2="56.875" y1="183.1348" y2="812.7702"/></g><g><title>Frontend</title><rect fill="#000000" fill-opacity="0.00000" height="629.6354" width="11.6667" x="284.1087" y="183.1348"/><line style="stroke:#181818;stroke-width:0.7292;stroke-dasharray:7.2917,7.2917;" x1="289.1331" x2="289.1331" y1="183.1348" y2="812.7702"/></g><g><title>Booking API</title><rect fill="#000000" fill-opacity="0.00000" height="629.6354" width="11.6667" x="704.6926" y="183.1348"/><line style="stroke:#181818;stroke-width:0.7292;stroke-dasharray:7.2917,7.2917;" x1="709.7305" x2="709.7305" y1="183.1348" y2="812.7702"/></g><g><title>.........</title><rect fill="#000000" fill-opacity="0.00000" height="629.6354" width="11.6667" x="1142.8719" y="183.1348"/><line style="stroke:#181818;stroke-width:0.7292;stroke-dasharray:7.2917,7.2917;" x1="1148.2281" x2="1148.2281" y1="183.1348" y2="812.7702"/></g><g class="participant participant-head" data-participant="......."><text fill="#000000" font-family="DejaVu Sans" font-size="20.4167" lengthAdjust="spacing" textLength="92.832" x="7.2917" y="178.3197">&#1055;&#1072;&#1094;&#1080;&#1077;&#1085;&#1090;</text><ellipse cx="58.0827" cy="84.2643" fill="#E2E2F0" rx="11.6667" ry="11.6667" style="stroke:#181818;stroke-width:0.7292;"/><path d="M58.0827,95.931 L58.0827,135.306 M39.1243,107.5977 L77.041,107.5977 M58.0827,135.306 L39.1243,157.181 M58.0827,135.306 L77.041,157.181" fill="none" style="stroke:#181818;stroke-width:0.7292;"/></g><g class="participant participant-tail" data-participant="......."><text fill="#000000" font-family="DejaVu Sans" font-size="20.4167" lengthAdjust="spacing" textLength="92.832" x="7.2917" y="830.2631">&#1055;&#1072;&#1094;&#1080;&#1077;&#1085;&#1090;</text><ellipse cx="58.0827" cy="847.474" fill="#E2E2F0" rx="11.6667" ry="11.6667" style="stroke:#181818;stroke-width:0.7292;"/><path d="M58.0827,859.1406 L58.0827,898.5156 M39.1243,870.8073 L77.041,870.8073 M58.0827,898.5156 L39.1243,920.3906 M58.0827,898.5156 L77.041,920.3906" fill="none" style="stroke:#181818;stroke-width:0.7292;"/></g><g class="participant participant-head" data-participant="FE"><rect fill="#E2E2F0" height="44.1829" rx="5.8333" ry="5.8333" style="stroke:#181818;stroke-width:0.7292;" width="112.4512" x="233.7164" y="137.4935"/><text fill="#000000" font-family="DejaVu Sans" font-size="20.4167" lengthAdjust="spacing" textLength="92.0345" x="243.9248" y="166.653">Frontend</text></g><g class="participant participant-tail" data-participant="FE"><rect fill="#E2E2F0" height="44.1829" rx="5.8333" ry="5.8333" style="stroke:#181818;stroke-width:0.7292;" width="112.4512" x="233.7164" y="811.3118"/><text fill="#000000" font-family="DejaVu Sans" font-size="20.4167" lengthAdjust="spacing" textLength="92.0345" x="243.9248" y="840.4714">Frontend</text></g><g class="participant participant-head" data-participant="API"><rect fill="#E2E2F0" height="44.1829" rx="5.8333" ry="5.8333" style="stroke:#181818;stroke-width:0.7292;" width="141.5908" x="639.7305" y="137.4935"/><text fill="#000000" font-family="DejaVu Sans" font-size="20.4167" lengthAdjust="spacing" textLength="121.1741" x="649.9389" y="166.653">Booking API</text></g><g class="participant participant-tail" data-participant="API"><rect fill="#E2E2F0" height="44.1829" rx="5.8333" ry="5.8333" style="stroke:#181818;stroke-width:0.7292;" width="141.5908" x="639.7305" y="811.3118"/><text fill="#000000" font-family="DejaVu Sans" font-size="20.4167" lengthAdjust="spacing" textLength="121.1741" x="649.9389" y="840.4714">Booking API</text></g><g class="participant participant-head" data-participant="PAY"><rect fill="#E2E2F0" height="44.1829" rx="5.8333" ry="5.8333" style="stroke:#181818;stroke-width:0.7292;" width="135.1208" x="1081.1448" y="137.4935"/><text fill="#000000" font-family="DejaVu Sans" font-size="20.4167" lengthAdjust="spacing" textLength="114.7042" x="1091.3531" y="166.653">&#1069;&#1082;&#1074;&#1072;&#1081;&#1088;&#1080;&#1085;&#1075;</text></g><g class="participant participant-tail" data-participant="PAY"><rect fill="#E2E2F0" height="44.1829" rx="5.8333" ry="5.8333" style="stroke:#181818;stroke-width:0.7292;" width="135.1208" x="1081.1448" y="811.3118"/><text fill="#000000" font-family="DejaVu Sans" font-size="20.4167" lengthAdjust="spacing" textLength="114.7042" x="1091.3531" y="840.4714">&#1069;&#1082;&#1074;&#1072;&#1081;&#1088;&#1080;&#1085;&#1075;</text></g><g class="message" data-participant-1="......." data-participant-2="FE"><polygon fill="#334155" points="272.442,224.401,287.0253,230.2344,272.442,236.0677,278.2753,230.2344" style="stroke:#334155;stroke-width:1.4583;"/><line style="stroke:#334155;stroke-width:1.4583;" x1="58.0827" x2="281.192" y1="230.2344" y2="230.2344"/><text fill="#000000" font-family="DejaVu Sans" font-size="20.4167" lengthAdjust="spacing" textLength="196.8593" x="68.291" y="222.5026">&#171;&#1054;&#1087;&#1083;&#1072;&#1090;&#1080;&#1090;&#1100; &#1074;&#1080;&#1079;&#1080;&#1090;&#187;</text></g><g class="message" data-participant-1="FE" data-participant-2="API"><polygon fill="#334155" points="693.0259,268.584,707.6093,274.4173,693.0259,280.2507,698.8593,274.4173" style="stroke:#334155;stroke-width:1.4583;"/><line style="stroke:#334155;stroke-width:1.4583;" x1="289.942" x2="701.7759" y1="274.4173" y2="274.4173"/><text fill="#000000" font-family="DejaVu Sans" font-size="20.4167" lengthAdjust="spacing" textLength="370.2814" x="300.1503" y="266.6856">POST /payments (Idempotency-Key)</text></g><g class="message" data-participant-1="API" data-participant-2="PAY"><polygon fill="#334155" points="1131.2052,312.7669,1145.7886,318.6003,1131.2052,324.4336,1137.0386,318.6003" style="stroke:#334155;stroke-width:1.4583;"/><line style="stroke:#334155;stroke-width:1.4583;" x1="710.5259" x2="1139.9552" y1="318.6003" y2="318.6003"/><text fill="#000000" font-family="DejaVu Sans" font-size="20.4167" lengthAdjust="spacing" textLength="403.1793" x="720.7343" y="310.8685">charge(payment_token, operation_key)</text></g><path d="M224.9664,340.4753 L315.2934,340.4753 L315.2934,352.5749 L300.71,367.1582 L219.1331,367.1582 L219.1331,346.3086 A5.8333,5.8333 0 0 1 224.9664,340.4753" fill="#EEEEEE" style="stroke:#000000;stroke-width:2.1875;"/><rect fill="none" height="447.5033" rx="5.8333" ry="5.8333" style="stroke:#000000;stroke-width:2.1875;" width="1029.6175" x="219.1331" y="340.4753"/><text fill="#000000" font-family="DejaVu Sans" font-size="20.4167" font-weight="bold" lengthAdjust="spacing" textLength="30.5353" x="241.0081" y="360.8848">alt</text><text fill="#000000" font-family="DejaVu Sans" font-size="20.4167" font-weight="bold" lengthAdjust="spacing" textLength="85.1957" x="337.1684" y="362.3431">[&#1091;&#1089;&#1087;&#1077;&#1093;]</text><g class="message" data-participant-1="PAY" data-participant-2="API"><polygon fill="#334155" points="726.5676,395.7324,711.9843,401.5658,726.5676,407.3991,720.7343,401.5658" style="stroke:#334155;stroke-width:1.4583;"/><line style="stroke:#334155;stroke-width:1.4583;stroke-dasharray:2.9167,2.9167;" x1="717.8176" x2="1147.2469" y1="401.5658" y2="401.5658"/><text fill="#000000" font-family="DejaVu Sans" font-size="20.4167" lengthAdjust="spacing" textLength="174.718" x="735.3176" y="393.834">approved(txn_id)</text></g><g class="message" data-participant-1="API" data-participant-2="FE"><polygon fill="#334155" points="305.9837,439.9154,291.4003,445.7487,305.9837,451.582,300.1503,445.7487" style="stroke:#334155;stroke-width:1.4583;"/><line style="stroke:#334155;stroke-width:1.4583;stroke-dasharray:2.9167,2.9167;" x1="297.2337" x2="709.0676" y1="445.7487" y2="445.7487"/><text fill="#000000" font-family="DejaVu Sans" font-size="20.4167" lengthAdjust="spacing" textLength="89.5622" x="314.7337" y="438.017">200 paid</text></g><line style="stroke:#000000;stroke-width:1.4583;stroke-dasharray:2.9167,2.9167;" x1="219.1331" x2="1248.7506" y1="458.8737" y2="458.8737"/><text fill="#000000" font-family="DejaVu Sans" font-size="20.4167" font-weight="bold" lengthAdjust="spacing" textLength="84.0194" x="226.4248" y="477.8249">[&#1086;&#1090;&#1082;&#1072;&#1079;]</text><g class="message" data-participant-1="PAY" data-participant-2="API"><polygon fill="#334155" points="726.5676,510.7813,711.9843,516.6146,726.5676,522.4479,720.7343,516.6146" style="stroke:#334155;stroke-width:1.4583;"/><line style="stroke:#334155;stroke-width:1.4583;stroke-dasharray:2.9167,2.9167;" x1="717.8176" x2="1147.2469" y1="516.6146" y2="516.6146"/><text fill="#000000" font-family="DejaVu Sans" font-size="20.4167" lengthAdjust="spacing" textLength="151.7194" x="735.3176" y="508.8829">declined(code)</text></g><g class="message" data-participant-1="API" data-participant-2="FE"><polygon fill="#334155" points="305.9837,554.9642,291.4003,560.7975,305.9837,566.6309,300.1503,560.7975" style="stroke:#334155;stroke-width:1.4583;"/><line style="stroke:#334155;stroke-width:1.4583;stroke-dasharray:2.9167,2.9167;" x1="297.2337" x2="709.0676" y1="560.7975" y2="560.7975"/><text fill="#000000" font-family="DejaVu Sans" font-size="20.4167" lengthAdjust="spacing" textLength="233.057" x="314.7337" y="553.0658">402 payment_required</text></g><line style="stroke:#000000;stroke-width:1.4583;stroke-dasharray:2.9167,2.9167;" x1="219.1331" x2="1248.7506" y1="573.9225" y2="573.9225"/><text fill="#000000" font-family="DejaVu Sans" font-size="20.4167" font-weight="bold" lengthAdjust="spacing" textLength="211.793" x="226.4248" y="592.8737">[&#1090;&#1072;&#1081;&#1084;&#1072;&#1091;&#1090; (&gt; 10 c)]</text><g class="message" data-participant-1="PAY" data-participant-2="API"><line style="stroke:#334155;stroke-width:2.9167;" x1="720.7343" x2="735.3176" y1="624.3717" y2="638.9551"/><line style="stroke:#334155;stroke-width:2.9167;" x1="720.7343" x2="735.3176" y1="638.9551" y2="624.3717"/><line style="stroke:#334155;stroke-width:1.4583;stroke-dasharray:2.9167,2.9167;" x1="728.0259" x2="1147.2469" y1="631.6634" y2="631.6634"/><text fill="#000000" font-family="DejaVu Sans" font-size="20.4167" lengthAdjust="spacing" textLength="79.5632" x="735.3176" y="623.9317">timeout</text></g><g class="message" data-participant-1="API" data-participant-2="FE"><polygon fill="#334155" points="305.9837,670.013,291.4003,675.8464,305.9837,681.6797,300.1503,675.8464" style="stroke:#334155;stroke-width:1.4583;"/><line style="stroke:#334155;stroke-width:1.4583;stroke-dasharray:2.9167,2.9167;" x1="297.2337" x2="709.0676" y1="675.8464" y2="675.8464"/><text fill="#000000" font-family="DejaVu Sans" font-size="20.4167" lengthAdjust="spacing" textLength="385.5839" x="314.7337" y="668.1146">202 status=UNKNOWN + payment_id</text></g><path d="M717.5,700.638 L717.5,773.5547 A5.8333,5.8333 0 0 0 723.3333,779.388 L1227.9167,779.388 A5.8333,5.8333 0 0 0 1233.75,773.5547 L1233.75,709.388 L1219.1667,694.8047 L723.3333,694.8047 A5.8333,5.8333 0 0 0 717.5,700.638" fill="#FFF7ED" style="stroke:#D97706;stroke-width:0.7292;"/><path d="M1219.1667,694.8047 L1219.1667,706.4714 A2.9167,2.9167 0 0 0 1222.0833,709.388 L1233.75,709.388 L1219.1667,694.8047" fill="#FFF7ED" style="stroke:#D97706;stroke-width:0.7292;"/><text fill="#000000" font-family="DejaVu Sans" font-size="20.4167" lengthAdjust="spacing" textLength="486.0423" x="726.25" y="721.0476">&#1053;&#1045; &#1089;&#1086;&#1079;&#1076;&#1072;&#1074;&#1072;&#1090;&#1100; &#1085;&#1086;&#1074;&#1099;&#1081; charge &#1089; &#1085;&#1086;&#1074;&#1099;&#1084; &#1082;&#1083;&#1102;&#1095;&#1086;&#1084;!</text><text fill="#000000" font-family="DejaVu Sans" font-size="20.4167" lengthAdjust="spacing" textLength="370.411" x="726.25" y="744.8138">&#1088;&#1077;&#1079;&#1091;&#1083;&#1100;&#1090;&#1072;&#1090; &#1091;&#1090;&#1086;&#1095;&#1085;&#1103;&#1077;&#1090;&#1089;&#1103; webhook'&#1086;&#1084;</text><text fill="#000000" font-family="DejaVu Sans" font-size="20.4167" lengthAdjust="spacing" textLength="154.8696" x="726.25" y="768.5801">&#1080;&#1083;&#1080; poll-job'&#1086;&#1084;</text></g></svg>