<svg xmlns="http://www.w3.org/2000/svg" xmlns:xlink="http://www.w3.org/1999/xlink" contentStyleType="text/css" data-diagram-type="CLASS" height="949.375px" preserveAspectRatio="none" style="width:1276px;height:949px;background:#FFFFFF;" version="1.1" viewBox="0 0 1276 949" width="1276.0417px" zoomAndPan="magnify"><title>ER: M:N &#171;&#1079;&#1072;&#1087;&#1080;&#1089;&#1100; &#8596; &#1091;&#1089;&#1083;&#1091;&#1075;&#1072;&#187; &#1095;&#1077;&#1088;&#1077;&#1079; &#1089;&#1074;&#1103;&#1079;&#1091;&#1102;&#1097;&#1091;&#1102; &#1090;&#1072;&#1073;&#1083;&#1080;&#1094;&#1091; + &#1082;&#1072;&#1088;&#1076;&#1080;&#1085;&#1072;&#1083;&#1100;&#1085;&#1086;&#1089;&#1090;&#1080;</title><defs/><g><g class="title" data-source-line="12"><text fill="#0F172A" font-family="DejaVu Sans" font-size="29.1667" font-weight="bold" lengthAdjust="spacing" textLength="1235.6384" x="14.5833" y="41.6565">ER: M:N &#171;&#1079;&#1072;&#1087;&#1080;&#1089;&#1100; &#8596; &#1091;&#1089;&#1083;&#1091;&#1075;&#1072;&#187; &#1095;&#1077;&#1088;&#1077;&#1079; &#1089;&#1074;&#1103;&#1079;&#1091;&#1102;&#1097;&#1091;&#1102; &#1090;&#1072;&#1073;&#1083;&#1080;&#1094;&#1091; + &#1082;&#1072;&#1088;&#1076;&#1080;&#1085;&#1072;&#1083;&#1100;&#1085;&#1086;&#1089;&#1090;&#1080;</text></g><!--class ???????--><g class="entity" data-entity="......." data-source-line="13" data-uid="ent0002" id="entity_......."><rect fill="#F1F1F1" height="138.3822" rx="5.8333" ry="5.8333" style="stroke:#181818;stroke-width:0.7292;" width="221.0557" x="395.599" y="74.7852"/><ellipse cx="454.0288" cy="96.6602" fill="#ADD1B2" rx="14.5833" ry="14.5833" style="stroke:#181818;stroke-width:1.4583;"/><path d="M458.4038,103.9518 L449.1525,103.9518 L449.1525,89.0723 L458.4038,89.0723 L458.4038,91.6699 L452.0919,91.6699 L452.0919,94.86 L457.8114,94.86 L457.8114,97.4577 L452.0919,97.4577 L452.0919,101.3542 L458.4038,101.3542 L458.4038,103.9518 Z " fill="#000000"/><text fill="#000000" font-family="DejaVu Sans" font-size="20.4167" lengthAdjust="spacing" textLength="92.832" x="481.4345" y="103.7282">&#1055;&#1072;&#1094;&#1080;&#1077;&#1085;&#1090;</text><line style="stroke:#181818;stroke-width:0.7292;" x1="397.0573" x2="615.1964" y1="118.5352" y2="118.5352"/><ellipse cx="411.6406" cy="138.4391" fill="#000000" rx="4.375" ry="4.375" style="stroke:#000000;stroke-width:1.4583;"/><text fill="#000000" font-family="DejaVu Sans" font-size="20.4167" lengthAdjust="spacing" textLength="184.5974" x="423.3073" y="143.3197">patient_id &#171;UUID&#187;</text><line style="stroke:#181818;stroke-width:1.4583;" x1="397.0573" x2="615.1964" y1="153.9681" y2="153.9681"/><text fill="#000000" font-family="DejaVu Sans" font-size="20.4167" lengthAdjust="spacing" textLength="25.3514" x="404.349" y="178.7526">fio</text><text fill="#000000" font-family="DejaVu Sans" font-size="20.4167" lengthAdjust="spacing" textLength="63.8918" x="404.349" y="202.5189">phone</text></g><!--class ??????--><g class="entity" data-entity="......" data-source-line="19" data-uid="ent0003" id="entity_......"><rect fill="#F1F1F1" height="162.1484" rx="5.8333" ry="5.8333" style="stroke:#181818;stroke-width:0.7292;" width="229.7388" x="391.2531" y="326.9164"/><ellipse cx="462.5513" cy="348.7914" fill="#ADD1B2" rx="14.5833" ry="14.5833" style="stroke:#181818;stroke-width:1.4583;"/><path d="M466.9263,356.0831 L457.675,356.0831 L457.675,341.2035 L466.9263,341.2035 L466.9263,343.8012 L460.6144,343.8012 L460.6144,346.9913 L466.3338,346.9913 L466.3338,349.5889 L460.6144,349.5889 L460.6144,353.4854 L466.9263,353.4854 L466.9263,356.0831 Z " fill="#000000"/><text fill="#000000" font-family="DejaVu Sans" font-size="20.4167" lengthAdjust="spacing" textLength="75.4759" x="490.2596" y="355.8595">&#1047;&#1072;&#1087;&#1080;&#1089;&#1100;</text><line style="stroke:#181818;stroke-width:0.7292;" x1="392.7115" x2="619.5336" y1="370.6664" y2="370.6664"/><ellipse cx="407.2948" cy="390.5704" fill="#000000" rx="4.375" ry="4.375" style="stroke:#000000;stroke-width:1.4583;"/><text fill="#000000" font-family="DejaVu Sans" font-size="20.4167" lengthAdjust="spacing" textLength="193.2804" x="418.9615" y="395.451">booking_id &#171;UUID&#187;</text><line style="stroke:#181818;stroke-width:1.4583;" x1="392.7115" x2="619.5336" y1="406.0993" y2="406.0993"/><ellipse cx="407.2948" cy="426.0033" fill="#000000" rx="4.375" ry="4.375" style="stroke:#000000;stroke-width:1.4583;"/><text fill="#000000" font-family="DejaVu Sans" font-size="20.4167" lengthAdjust="spacing" textLength="158.0996" x="418.9615" y="430.8839">patient_id &#171;FK&#187;</text><ellipse cx="407.2948" cy="449.7696" fill="#000000" rx="4.375" ry="4.375" style="stroke:#000000;stroke-width:1.4583;"/><text fill="#000000" font-family="DejaVu Sans" font-size="20.4167" lengthAdjust="spacing" textLength="122.2508" x="418.9615" y="454.6502">slot_id &#171;FK&#187;</text><text fill="#000000" font-family="DejaVu Sans" font-size="20.4167" lengthAdjust="spacing" textLength="62.7354" x="418.9615" y="478.4164">status</text></g><!--class ??????--><g class="entity" data-entity="......" data-source-line="26" data-uid="ent0004" id="entity_......"><rect fill="#F1F1F1" height="138.3822" rx="5.8333" ry="5.8333" style="stroke:#181818;stroke-width:0.7292;" width="221.5342" x="672.4344" y="338.8018"/><ellipse cx="741.3499" cy="360.6768" fill="#ADD1B2" rx="14.5833" ry="14.5833" style="stroke:#181818;stroke-width:1.4583;"/><path d="M745.7249,367.9685 L736.4736,367.9685 L736.4736,353.0889 L745.7249,353.0889 L745.7249,355.6866 L739.4131,355.6866 L739.4131,358.8767 L745.1325,358.8767 L745.1325,361.4743 L739.4131,361.4743 L739.4131,365.3708 L745.7249,365.3708 L745.7249,367.9685 Z " fill="#000000"/><text fill="#000000" font-family="DejaVu Sans" font-size="20.4167" lengthAdjust="spacing" textLength="72.0365" x="769.0582" y="367.7449">&#1059;&#1089;&#1083;&#1091;&#1075;&#1072;</text><line style="stroke:#181818;stroke-width:0.7292;" x1="673.8927" x2="892.5103" y1="382.5518" y2="382.5518"/><ellipse cx="688.4761" cy="402.4558" fill="#000000" rx="4.375" ry="4.375" style="stroke:#000000;stroke-width:1.4583;"/><text fill="#000000" font-family="DejaVu Sans" font-size="20.4167" lengthAdjust="spacing" textLength="185.0759" x="700.1427" y="407.3364">service_id &#171;UUID&#187;</text><line style="stroke:#181818;stroke-width:1.4583;" x1="673.8927" x2="892.5103" y1="417.9848" y2="417.9848"/><text fill="#000000" font-family="DejaVu Sans" font-size="20.4167" lengthAdjust="spacing" textLength="57.9004" x="681.1844" y="442.7693">name</text><text fill="#000000" font-family="DejaVu Sans" font-size="20.4167" lengthAdjust="spacing" textLength="135.4797" x="681.1844" y="466.5356">price_current</text></g><!--class ????????????--><g class="entity" data-entity="............" data-source-line="32" data-uid="ent0005" id="entity_............"><rect fill="#F1F1F1" height="162.1484" rx="5.8333" ry="5.8333" style="stroke:#181818;stroke-width:0.7292;" width="203.241" x="543.0365" y="602.8185"/><ellipse cx="568.8435" cy="624.6935" fill="#ADD1B2" rx="14.5833" ry="14.5833" style="stroke:#181818;stroke-width:1.4583;"/><path d="M573.2185,631.9852 L563.9672,631.9852 L563.9672,617.1056 L573.2185,617.1056 L573.2185,619.7033 L566.9066,619.7033 L566.9066,622.8934 L572.626,622.8934 L572.626,625.491 L566.9066,625.491 L566.9066,629.3875 L573.2185,629.3875 L573.2185,631.9852 Z " fill="#000000"/><text fill="#000000" font-family="DejaVu Sans" font-size="20.4167" lengthAdjust="spacing" textLength="147.5124" x="588.9997" y="631.7616">&#1047;&#1072;&#1087;&#1080;&#1089;&#1100;&#1059;&#1089;&#1083;&#1091;&#1075;&#1072;</text><line style="stroke:#181818;stroke-width:0.7292;" x1="544.4948" x2="744.8191" y1="646.5685" y2="646.5685"/><ellipse cx="559.0781" cy="666.4725" fill="#000000" rx="4.375" ry="4.375" style="stroke:#000000;stroke-width:1.4583;"/><text fill="#000000" font-family="DejaVu Sans" font-size="20.4167" lengthAdjust="spacing" textLength="166.7826" x="570.7448" y="671.353">booking_id &#171;FK&#187;</text><ellipse cx="559.0781" cy="690.2387" fill="#000000" rx="4.375" ry="4.375" style="stroke:#000000;stroke-width:1.4583;"/><text fill="#000000" font-family="DejaVu Sans" font-size="20.4167" lengthAdjust="spacing" textLength="158.5781" x="570.7448" y="695.1193">service_id &#171;FK&#187;</text><line style="stroke:#181818;stroke-width:1.4583;" x1="544.4948" x2="744.8191" y1="705.7677" y2="705.7677"/><text fill="#000000" font-family="DejaVu Sans" font-size="20.4167" lengthAdjust="spacing" textLength="154.1418" x="551.7865" y="730.5523">price_snapshot</text><text fill="#000000" font-family="DejaVu Sans" font-size="20.4167" lengthAdjust="spacing" textLength="33.0475" x="551.7865" y="754.3185">qty</text></g><g class="entity" data-entity="GMN9" data-source-line="42" data-uid="ent0010" id="entity_GMN9"><path d="M408.3302,859.7622 L408.3302,933.9777 A5.8333,5.8333 0 0 0 414.1636,939.8111 L875.1607,939.8111 A5.8333,5.8333 0 0 0 880.994,933.9777 L880.994,868.5122 L866.4107,853.9289 L650.5011,853.9289 L644.6677,765.3643 L638.8344,853.9289 L414.1636,853.9289 A5.8333,5.8333 0 0 0 408.3302,859.7622" fill="#FFF7ED" style="stroke:#D97706;stroke-width:0.7292;"/><path d="M866.4107,853.9289 L866.4107,865.5956 A2.9167,2.9167 0 0 0 869.3273,868.5122 L880.994,868.5122 L866.4107,853.9289" fill="#FFF7ED" style="stroke:#D97706;stroke-width:0.7292;"/><text fill="#000000" font-family="DejaVu Sans" font-size="20.4167" lengthAdjust="spacing" textLength="358.8269" x="417.0802" y="880.1718">&#1041;&#1077;&#1079; &#1101;&#1090;&#1086;&#1081; &#1090;&#1072;&#1073;&#1083;&#1080;&#1094;&#1099; &#1089;&#1093;&#1077;&#1084;&#1072; &#1073;&#1099;&#1083;&#1072; &#1073;&#1099;</text><text fill="#000000" font-family="DejaVu Sans" font-size="20.4167" lengthAdjust="spacing" textLength="442.0388" x="417.0802" y="903.9381">&#171;&#1047;&#1072;&#1087;&#1080;&#1089;&#1100;.services UUID[]&#187; &#8212; &#1073;&#1077;&#1079; &#1080;&#1085;&#1076;&#1077;&#1082;&#1089;&#1086;&#1074;</text><text fill="#000000" font-family="DejaVu Sans" font-size="20.4167" lengthAdjust="spacing" textLength="157.1027" x="417.0802" y="927.7043">&#1080; &#1094;&#1077;&#1083;&#1086;&#1089;&#1090;&#1085;&#1086;&#1089;&#1090;&#1080;</text></g><!--link ??????? to ??????--><g class="link" data-entity-1="......." data-entity-2="......" data-source-line="39" data-uid="lnk6" id="link_......._......"><path codeLine="39" d="M506.1261,225.0227 C506.1261,259.6289 506.1261,278.5872 506.1261,314.7685" fill="none" id="&#1055;&#1072;&#1094;&#1080;&#1077;&#1085;&#1090;-&#1047;&#1072;&#1087;&#1080;&#1089;&#1100;" style="stroke:#334155;stroke-width:1.4583;"/><line style="stroke:#334155;stroke-width:1.4583;" x1="500.2927" x2="511.9594" y1="219.1893" y2="219.1893"/><line style="stroke:#334155;stroke-width:1.4583;" x1="500.2927" x2="511.9594" y1="223.5643" y2="223.5643"/><line style="stroke:#334155;stroke-width:1.4583;" x1="506.1261" x2="506.1261" y1="225.0227" y2="213.356"/><line style="stroke:#334155;stroke-width:1.4583;" x1="506.1261" x2="514.8761" y1="314.7685" y2="326.4352"/><line style="stroke:#334155;stroke-width:1.4583;" x1="506.1261" x2="497.3761" y1="314.7685" y2="326.4352"/><line style="stroke:#334155;stroke-width:1.4583;" x1="506.1261" x2="506.1261" y1="314.7685" y2="326.4352"/><line style="stroke:#334155;stroke-width:1.4583;" x1="511.9594" x2="500.2927" y1="311.8518" y2="311.8518"/><text fill="#000000" font-family="DejaVu Sans" font-size="20.4167" lengthAdjust="spacing" textLength="82.5639" x="507.5844" y="277.326">1 &#8212; 1..*</text></g><!--link ?????? to ????????????--><g class="link" data-entity-1="......" data-entity-2="............" data-source-line="40" data-uid="lnk7" id="link_......_............"><path codeLine="40" d="M498.2816,501.4461 C498.8649,524.6627 502.1886,537.806 511.9594,559.0685 C519.4406,575.3727 522.4166,581.7978 534.5791,595.5061" fill="none" id="&#1047;&#1072;&#1087;&#1080;&#1089;&#1100;-&#1047;&#1072;&#1087;&#1080;&#1089;&#1100;&#1059;&#1089;&#1083;&#1091;&#1075;&#1072;" style="stroke:#334155;stroke-width:1.4583;"/><line style="stroke:#334155;stroke-width:1.4583;" x1="492.3036" x2="503.9666" y1="495.7611" y2="495.468"/><line style="stroke:#334155;stroke-width:1.4583;" x1="492.4135" x2="504.0765" y1="500.1347" y2="499.8417"/><line style="stroke:#334155;stroke-width:1.4583;" x1="498.2816" x2="497.9886" y1="501.4461" y2="489.7831"/><line style="stroke:#334155;stroke-width:1.4583;" x1="534.5791" x2="548.8671" y1="595.5061" y2="598.4259"/><line style="stroke:#334155;stroke-width:1.4583;" x1="534.5791" x2="535.7767" y1="595.5061" y2="610.0402"/><line style="stroke:#334155;stroke-width:1.4583;" x1="534.5791" x2="542.3219" y1="595.5061" y2="604.2331"/><line style="stroke:#334155;stroke-width:1.4583;" x1="537.0068" x2="528.2799" y1="589.453" y2="597.1958"/><text fill="#000000" font-family="DejaVu Sans" font-size="20.4167" lengthAdjust="spacing" textLength="206.5592" x="513.4177" y="553.228">&#1076;&#1088;&#1086;&#1073;&#1080;&#1090; &#1085;&#1072; &#1087;&#1086;&#1079;&#1080;&#1094;&#1080;&#1080;</text></g><!--link ?????? to ????????????--><g class="link" data-entity-1="......" data-entity-2="............" data-source-line="41" data-uid="lnk8" id="link_......_............"><path codeLine="41" d="M756.8313,488.836 C747.4105,514.8089 739.5177,533.3581 726.3344,559.0685 C718.9406,573.4622 716.4808,578.3869 707.5704,592.489" fill="none" id="&#1059;&#1089;&#1083;&#1091;&#1075;&#1072;-&#1047;&#1072;&#1087;&#1080;&#1089;&#1100;&#1059;&#1089;&#1083;&#1091;&#1075;&#1072;" style="stroke:#334155;stroke-width:1.4583;"/><line style="stroke:#334155;stroke-width:1.4583;" x1="753.3366" x2="764.3041" y1="481.3632" y2="485.3413"/><line style="stroke:#334155;stroke-width:1.4583;" x1="751.8448" x2="762.8123" y1="485.476" y2="489.4541"/><line style="stroke:#334155;stroke-width:1.4583;" x1="756.8313" x2="760.8094" y1="488.836" y2="477.8685"/><line style="stroke:#334155;stroke-width:1.4583;" x1="707.5704" x2="708.7357" y1="592.489" y2="607.0257"/><line style="stroke:#334155;stroke-width:1.4583;" x1="707.5704" x2="693.9414" y1="592.489" y2="597.6779"/><line style="stroke:#334155;stroke-width:1.4583;" x1="707.5704" x2="701.3386" y1="592.489" y2="602.3518"/><line style="stroke:#334155;stroke-width:1.4583;" x1="714.0598" x2="704.1969" y1="593.1392" y2="586.9074"/><text fill="#000000" font-family="DejaVu Sans" font-size="20.4167" lengthAdjust="spacing" textLength="152.6963" x="739.1094" y="553.228">M:N &#1088;&#1072;&#1079;&#1088;&#1077;&#1096;&#1105;&#1085;</text></g></g></svg>