<svg xmlns="http://www.w3.org/2000/svg" xmlns:xlink="http://www.w3.org/1999/xlink" contentStyleType="text/css" data-diagram-type="DESCRIPTION" height="573.125px" preserveAspectRatio="none" style="width:2582px;height:573px;background:#FFFFFF;" version="1.1" viewBox="0 0 2582 573" width="2582.7083px" zoomAndPan="magnify"><title>&#1052;&#1072;&#1089;&#1096;&#1090;&#1072;&#1073;&#1080;&#1088;&#1086;&#1074;&#1072;&#1085;&#1080;&#1077; &#1095;&#1090;&#1077;&#1085;&#1080;&#1103; &#1080; &#1079;&#1072;&#1087;&#1080;&#1089;&#1080;: &#1088;&#1077;&#1087;&#1083;&#1080;&#1082;&#1072;&#1094;&#1080;&#1103; vs &#1096;&#1072;&#1088;&#1076;&#1080;&#1088;&#1086;&#1074;&#1072;&#1085;&#1080;&#1077;</title><defs/><g><g class="title" data-source-line="12"><text fill="#0F172A" font-family="DejaVu Sans" font-size="29.1667" font-weight="bold" lengthAdjust="spacing" textLength="1131.9743" x="715.3866" y="41.6565">&#1052;&#1072;&#1089;&#1096;&#1090;&#1072;&#1073;&#1080;&#1088;&#1086;&#1074;&#1072;&#1085;&#1080;&#1077; &#1095;&#1090;&#1077;&#1085;&#1080;&#1103; &#1080; &#1079;&#1072;&#1087;&#1080;&#1089;&#1080;: &#1088;&#1077;&#1087;&#1083;&#1080;&#1082;&#1072;&#1094;&#1080;&#1103; vs &#1096;&#1072;&#1088;&#1076;&#1080;&#1088;&#1086;&#1074;&#1072;&#1085;&#1080;&#1077;</text></g><!--cluster ?????????? (async/streaming)--><g class="cluster" data-entity=".......... .async.streaming." data-source-line="14" data-uid="ent0002" id="cluster_.......... .async.streaming."><path d="M138.775,73.3268 L494.3463,73.3268 A8.75,8.75 0 0 1 500.1796,79.1602 L510.388,105.8431 L668.15,105.8431 A5.8333,5.8333 0 0 1 673.9833,111.6764 L673.9833,433.156 A5.8333,5.8333 0 0 1 668.15,438.9893 L138.775,438.9893 A5.8333,5.8333 0 0 1 132.9417,433.156 L132.9417,79.1602 A5.8333,5.8333 0 0 1 138.775,73.3268" fill="#F5F5F5" style="stroke:#000000;stroke-width:2.1875;"/><line style="stroke:#000000;stroke-width:2.1875;" x1="132.9417" x2="510.388" y1="105.8431" y2="105.8431"/><text fill="#000000" font-family="DejaVu Sans" font-size="20.4167" font-weight="bold" lengthAdjust="spacing" textLength="358.488" x="138.775" y="95.1947">&#1056;&#1077;&#1087;&#1083;&#1080;&#1082;&#1072;&#1094;&#1080;&#1103; (async/streaming)</text></g><!--cluster ???????????? (partitioning)--><g class="cluster" data-entity="............ .partitioning." data-source-line="28" data-uid="ent0011" id="cluster_............ .partitioning."><path d="M714.8167,285.2081 L1056.3615,285.2081 A8.75,8.75 0 0 1 1062.1948,291.0414 L1072.4031,317.7243 L1566.4833,317.7243 A5.8333,5.8333 0 0 1 1572.3167,323.5577 L1572.3167,445.0414 A5.8333,5.8333 0 0 1 1566.4833,450.8747 L714.8167,450.8747 A5.8333,5.8333 0 0 1 708.9833,445.0414 L708.9833,291.0414 A5.8333,5.8333 0 0 1 714.8167,285.2081" fill="#F5F5F5" style="stroke:#000000;stroke-width:2.1875;"/><line style="stroke:#000000;stroke-width:2.1875;" x1="708.9833" x2="1072.4031" y1="317.7243" y2="317.7243"/><text fill="#000000" font-family="DejaVu Sans" font-size="20.4167" font-weight="bold" lengthAdjust="spacing" textLength="344.4615" x="714.8167" y="307.076">&#1064;&#1072;&#1088;&#1076;&#1080;&#1088;&#1086;&#1074;&#1072;&#1085;&#1080;&#1077; (partitioning)</text></g><!--entity P--><g class="entity" data-entity="P" data-source-line="15" data-uid="ent0003" id="entity_P"><polygon fill="#DAE8FC" points="418.1042,138.9518,432.6875,124.3685,629.4429,124.3685,629.4429,177.3014,614.8595,191.8848,418.1042,191.8848,418.1042,138.9518" style="stroke:#181818;stroke-width:0.7292;"/><line style="stroke:#181818;stroke-width:0.7292;" x1="614.8595" x2="629.4429" y1="138.9518" y2="124.3685"/><line style="stroke:#181818;stroke-width:0.7292;" x1="418.1042" x2="614.8595" y1="138.9518" y2="138.9518"/><line style="stroke:#181818;stroke-width:0.7292;" x1="614.8595" x2="614.8595" y1="138.9518" y2="191.8848"/><text fill="#000000" font-family="DejaVu Sans" font-size="20.4167" lengthAdjust="spacing" textLength="153.0054" x="439.9792" y="172.4864">Primary (write)</text></g><!--entity R1--><g class="entity" data-entity="R1" data-source-line="16" data-uid="ent0004" id="entity_R1"><polygon fill="#D5E8D4" points="156.3771,362.7185,170.9604,348.1352,377.8244,348.1352,377.8244,401.0681,363.2411,415.6514,156.3771,415.6514,156.3771,362.7185" style="stroke:#181818;stroke-width:0.7292;"/><line style="stroke:#181818;stroke-width:0.7292;" x1="363.2411" x2="377.8244" y1="362.7185" y2="348.1352"/><line style="stroke:#181818;stroke-width:0.7292;" x1="156.3771" x2="363.2411" y1="362.7185" y2="362.7185"/><line style="stroke:#181818;stroke-width:0.7292;" x1="363.2411" x2="363.2411" y1="362.7185" y2="415.6514"/><text fill="#000000" font-family="DejaVu Sans" font-size="20.4167" lengthAdjust="spacing" textLength="163.114" x="178.2521" y="396.253">Replica 1 (read)</text></g><!--entity R2--><g class="entity" data-entity="R2" data-source-line="17" data-uid="ent0005" id="entity_R2"><polygon fill="#D5E8D4" points="429.0854,362.7185,443.6688,348.1352,650.5328,348.1352,650.5328,401.0681,635.9494,415.6514,429.0854,415.6514,429.0854,362.7185" style="stroke:#181818;stroke-width:0.7292;"/><line style="stroke:#181818;stroke-width:0.7292;" x1="635.9494" x2="650.5328" y1="362.7185" y2="348.1352"/><line style="stroke:#181818;stroke-width:0.7292;" x1="429.0854" x2="635.9494" y1="362.7185" y2="362.7185"/><line style="stroke:#181818;stroke-width:0.7292;" x1="635.9494" x2="635.9494" y1="362.7185" y2="415.6514"/><text fill="#000000" font-family="DejaVu Sans" font-size="20.4167" lengthAdjust="spacing" textLength="163.114" x="450.9604" y="396.253">Replica 2 (read)</text></g><!--entity S1--><g class="entity" data-entity="S1" data-source-line="29" data-uid="ent0012" id="entity_S1"><polygon fill="#FFF2CC" points="731.8646,350.8331,746.4479,336.2497,980.6671,336.2497,980.6671,412.949,966.0837,427.5323,731.8646,427.5323,731.8646,350.8331" style="stroke:#181818;stroke-width:0.7292;"/><line style="stroke:#181818;stroke-width:0.7292;" x1="966.0837" x2="980.6671" y1="350.8331" y2="336.2497"/><line style="stroke:#181818;stroke-width:0.7292;" x1="731.8646" x2="966.0837" y1="350.8331" y2="350.8331"/><line style="stroke:#181818;stroke-width:0.7292;" x1="966.0837" x2="966.0837" y1="350.8331" y2="427.5323"/><text fill="#000000" font-family="DejaVu Sans" font-size="20.4167" lengthAdjust="spacing" textLength="79.2442" x="753.7396" y="384.3676">Shard 1</text><text fill="#000000" font-family="DejaVu Sans" font-size="20.4167" lengthAdjust="spacing" textLength="190.4692" x="753.7396" y="408.1339">client_id % 4 == 0</text></g><!--entity S2--><g class="entity" data-entity="S2" data-source-line="30" data-uid="ent0013" id="entity_S2"><polygon fill="#FFF2CC" points="1032.2813,350.8331,1046.8646,336.2497,1170.2675,336.2497,1170.2675,412.949,1155.6842,427.5323,1032.2813,427.5323,1032.2813,350.8331" style="stroke:#181818;stroke-width:0.7292;"/><line style="stroke:#181818;stroke-width:0.7292;" x1="1155.6842" x2="1170.2675" y1="350.8331" y2="336.2497"/><line style="stroke:#181818;stroke-width:0.7292;" x1="1032.2813" x2="1155.6842" y1="350.8331" y2="350.8331"/><line style="stroke:#181818;stroke-width:0.7292;" x1="1155.6842" x2="1155.6842" y1="350.8331" y2="427.5323"/><text fill="#000000" font-family="DejaVu Sans" font-size="20.4167" lengthAdjust="spacing" textLength="79.2442" x="1054.1563" y="384.3676">Shard 2</text><text fill="#000000" font-family="DejaVu Sans" font-size="20.4167" lengthAdjust="spacing" textLength="79.6529" x="1054.1563" y="408.1339">... == 1</text></g><!--entity S3--><g class="entity" data-entity="S3" data-source-line="31" data-uid="ent0014" id="entity_S3"><polygon fill="#FFF2CC" points="1221.8646,350.8331,1236.4479,336.2497,1359.8508,336.2497,1359.8508,412.949,1345.2675,427.5323,1221.8646,427.5323,1221.8646,350.8331" style="stroke:#181818;stroke-width:0.7292;"/><line style="stroke:#181818;stroke-width:0.7292;" x1="1345.2675" x2="1359.8508" y1="350.8331" y2="336.2497"/><line style="stroke:#181818;stroke-width:0.7292;" x1="1221.8646" x2="1345.2675" y1="350.8331" y2="350.8331"/><line style="stroke:#181818;stroke-width:0.7292;" x1="1345.2675" x2="1345.2675" y1="350.8331" y2="427.5323"/><text fill="#000000" font-family="DejaVu Sans" font-size="20.4167" lengthAdjust="spacing" textLength="79.2442" x="1243.7396" y="384.3676">Shard 3</text><text fill="#000000" font-family="DejaVu Sans" font-size="20.4167" lengthAdjust="spacing" textLength="79.6529" x="1243.7396" y="408.1339">... == 2</text></g><!--entity S4--><g class="entity" data-entity="S4" data-source-line="32" data-uid="ent0015" id="entity_S4"><polygon fill="#FFF2CC" points="1411.4479,350.8331,1426.0313,336.2497,1549.4342,336.2497,1549.4342,412.949,1534.8508,427.5323,1411.4479,427.5323,1411.4479,350.8331" style="stroke:#181818;stroke-width:0.7292;"/><line style="stroke:#181818;stroke-width:0.7292;" x1="1534.8508" x2="1549.4342" y1="350.8331" y2="336.2497"/><line style="stroke:#181818;stroke-width:0.7292;" x1="1411.4479" x2="1534.8508" y1="350.8331" y2="350.8331"/><line style="stroke:#181818;stroke-width:0.7292;" x1="1534.8508" x2="1534.8508" y1="350.8331" y2="427.5323"/><text fill="#000000" font-family="DejaVu Sans" font-size="20.4167" lengthAdjust="spacing" textLength="79.2442" x="1433.3229" y="384.3676">Shard 4</text><text fill="#000000" font-family="DejaVu Sans" font-size="20.4167" lengthAdjust="spacing" textLength="79.6529" x="1433.3229" y="408.1339">... == 3</text></g><g class="entity" data-entity="GMN8" data-source-line="22" data-uid="ent0009" id="entity_GMN8"><path d="M1600.3021,332.9102 L1600.3021,430.8919 A5.8333,5.8333 0 0 0 1606.1354,436.7253 L2101.4062,436.7253 A5.8333,5.8333 0 0 0 2107.2395,430.8919 L2107.2395,341.6602 L2092.6562,327.0768 L1606.1354,327.0768 A5.8333,5.8333 0 0 0 1600.3021,332.9102" fill="#FFF7ED" style="stroke:#D97706;stroke-width:0.7292;"/><path d="M2092.6562,327.0768 L2092.6562,338.7435 A2.9167,2.9167 0 0 0 2095.5729,341.6602 L2107.2395,341.6602 L2092.6562,327.0768" fill="#FFF7ED" style="stroke:#D97706;stroke-width:1.4583;"/><text fill="#000000" font-family="DejaVu Sans" font-size="20.4167" lengthAdjust="spacing" textLength="344.9699" x="1609.0521" y="353.3197">&#1056;&#1080;&#1089;&#1082;: replication lag -&gt; &#1095;&#1080;&#1090;&#1072;&#1090;&#1077;&#1083;&#1100;</text><text fill="#000000" font-family="DejaVu Sans" font-size="20.4167" lengthAdjust="spacing" textLength="452.8652" x="1609.0521" y="377.086">&#1085;&#1077; &#1074;&#1080;&#1076;&#1080;&#1090; &#1089;&#1074;&#1086;&#1102; &#1079;&#1072;&#1087;&#1080;&#1089;&#1100; ("read-your-writes").</text><text fill="#000000" font-family="DejaVu Sans" font-size="20.4167" lengthAdjust="spacing" textLength="409.8387" x="1609.0521" y="400.8523">&#1051;&#1077;&#1095;&#1077;&#1085;&#1080;&#1077;: &#1087;&#1086;&#1089;&#1083;&#1077; write &#1095;&#1080;&#1090;&#1072;&#1090;&#1100; &#1089; primary</text><text fill="#000000" font-family="DejaVu Sans" font-size="20.4167" lengthAdjust="spacing" textLength="476.3125" x="1609.0521" y="424.6185">&#1080;&#1083;&#1080; &#1078;&#1076;&#1072;&#1090;&#1100; LSN; &#1084;&#1077;&#1090;&#1088;&#1080;&#1082;&#1072; lag &#1074; &#1084;&#1086;&#1085;&#1080;&#1090;&#1086;&#1088;&#1080;&#1085;&#1075;&#1077;.</text></g><g class="entity" data-entity="GMN17" data-source-line="36" data-uid="ent0018" id="entity_GMN17"><path d="M8.75,531.506 L8.75,558.1889 A5.8333,5.8333 0 0 0 14.5833,564.0223 L2567.1224,564.0223 A5.8333,5.8333 0 0 0 2572.9557,558.1889 L2572.9557,540.256 L2558.3724,525.6727 L1296.6917,525.6727 L1290.8583,427.9352 L1285.025,525.6727 L14.5833,525.6727 A5.8333,5.8333 0 0 0 8.75,531.506" fill="#FFF7ED" style="stroke:#D97706;stroke-width:0.7292;"/><path d="M2558.3724,525.6727 L2558.3724,537.3393 A2.9167,2.9167 0 0 0 2561.2891,540.256 L2572.9557,540.256 L2558.3724,525.6727" fill="#FFF7ED" style="stroke:#D97706;stroke-width:0.7292;"/><text fill="#000000" font-family="DejaVu Sans" font-size="20.4167" lengthAdjust="spacing" textLength="2533.5807" x="17.5" y="551.9155">&#1042;&#1099;&#1073;&#1086;&#1088; &#1096;&#1072;&#1088;&#1076;-&#1082;&#1083;&#1102;&#1095;&#1072; = &#1074;&#1099;&#1073;&#1086;&#1088; &#1073;&#1091;&#1076;&#1091;&#1097;&#1080;&#1093; &#1079;&#1072;&#1087;&#1088;&#1086;&#1089;&#1086;&#1074;:\n&#1074;&#1089;&#1077; &#1079;&#1072;&#1087;&#1088;&#1086;&#1089;&#1099; &#1076;&#1086;&#1083;&#1078;&#1085;&#1099; &#1089;&#1086;&#1076;&#1077;&#1088;&#1078;&#1072;&#1090;&#1100; client_id.\n&#1050;&#1088;&#1086;&#1089;&#1089;-&#1096;&#1072;&#1088;&#1076;&#1085;&#1099;&#1077; JOIN &#1080; &#1075;&#1083;&#1086;&#1073;&#1072;&#1083;&#1100;&#1085;&#1099;&#1077;\n&#1091;&#1085;&#1080;&#1082;&#1072;&#1083;&#1100;&#1085;&#1086;&#1089;&#1090;&#1080; &#1089;&#1090;&#1072;&#1085;&#1086;&#1074;&#1103;&#1090;&#1089;&#1103; &#1076;&#1086;&#1088;&#1086;&#1075;&#1080;&#1084;&#1080;.\nResharding &#1087;&#1083;&#1072;&#1085;&#1080;&#1088;&#1086;&#1074;&#1072;&#1090;&#1100; &#1079;&#1072;&#1088;&#1072;&#1085;&#1077;&#1077;\n(range-based &#1083;&#1077;&#1075;&#1095;&#1077; hash-based).</text></g><!--link P to R1--><g class="link" data-entity-1="P" data-entity-2="R1" data-source-line="18" data-uid="lnk6" id="link_P_R1"><path d="M456.0646,192.5164 C434.2625,204.606 410.6958,219.3643 391.0667,235.6247 C350.7875,268.9768 318.1778,309.2592 295.1653,340.628" fill="none" id="P-to-R1" style="stroke:#334155;stroke-width:1.4583;"/><polygon fill="#334155" points="289.9896,347.6831,302.4566,340.5509,294.3027,341.8038,293.0497,333.6499,289.9896,347.6831" style="stroke:#334155;stroke-width:1.4583;"/><text fill="#000000" font-family="DejaVu Sans" font-size="20.4167" lengthAdjust="spacing" textLength="124.0153" x="392.525" y="256.0343">WAL stream</text></g><!--link P to R2--><g class="link" data-entity-1="P" data-entity-2="R2" data-source-line="19" data-uid="lnk7" id="link_P_R2"><path d="M526.1375,192.1664 C529.1708,233.9185 533.7557,297.1604 536.8036,338.9854" fill="none" id="P-to-R2" style="stroke:#334155;stroke-width:1.4583;"/><polygon fill="#334155" points="537.4396,347.7122,542.3036,334.198,536.9096,340.4399,530.6677,335.0459,537.4396,347.7122" style="stroke:#334155;stroke-width:1.4583;"/><text fill="#000000" font-family="DejaVu Sans" font-size="20.4167" lengthAdjust="spacing" textLength="124.0153" x="532.2917" y="256.0343">WAL stream</text></g><!--link R1 to GMN8--><g class="link" data-entity-1="R1" data-entity-2="GMN8" data-source-line="22" data-uid="lnk10" id="link_R1_GMN8"><path d="M291.7979,347.4352 C320.2792,310.9914 370.7958,255.6477 429.7125,232.7081 C545.3729,187.6893 1425.8271,204.8831 1546.7958,232.7081 C1625.6187,250.8497 1707.65,292.0622 1767.0771,326.581" fill="none" id="R1-GMN8" style="stroke:#334155;stroke-width:1.4583;stroke-dasharray:10.2083,10.2083;"/></g><!--link P to S1--><g class="link" data-entity-1="P" data-entity-2="S1" data-source-line="34" data-uid="lnk16" id="link_P_S1"><path d="M593.0896,192.5164 C617.7792,205.0872 645.4437,220.1372 669.6083,235.6247 C717.0771,266.0747 760.6559,300.0257 797.0705,330.0819" fill="none" id="P-to-S1" style="stroke:#334155;stroke-width:1.4583;stroke-dasharray:10.2083,10.2083;"/><polygon fill="#334155" points="803.8188,335.6518,797.4097,322.7981,798.1952,331.0102,789.9831,331.7958,803.8188,335.6518" style="stroke:#334155;stroke-width:1.4583;"/><text fill="#000000" font-family="DejaVu Sans" font-size="20.4167" lengthAdjust="spacing" textLength="248.6188" x="708.4729" y="256.0343">writes &#1088;&#1072;&#1089;&#1087;&#1088;&#1077;&#1076;&#1077;&#1083;&#1103;&#1102;&#1090;&#1089;&#1103;</text></g></g></svg>